<svg width="1251" height="527" viewBox="0 0 1251 527" fill="none" xmlns="http://www.w3.org/2000/svg">
<mask id="path-1-outside-1_118_2" maskUnits="userSpaceOnUse" x="124.272" y="0.648651" width="1150.92" height="526.766" fill="black">
<rect fill="white" x="124.272" y="0.648651" width="1150.92" height="526.766"/>
<path d="M877.461 374.792C872.88 396.076 864.785 414.374 853.177 429.684C842.027 444.621 827.295 456.01 808.982 463.852C791.046 471.694 769.609 475.615 744.67 475.615C727.666 475.615 711.7 474.308 696.77 471.694C682.72 469.234 668.858 465.12 655.184 459.353C653.652 458.706 652.872 457.083 653.242 455.362L669.743 378.693C670.362 375.817 673.741 374.16 676.14 375.514C687.036 381.664 698.566 386.838 710.73 391.035C725.257 395.516 738.756 397.757 751.225 397.757C759.916 397.757 766.432 396.45 770.773 393.836C775.573 390.849 778.615 386.368 779.901 380.393C780.685 376.751 780.135 373.465 778.25 370.534C778.154 370.384 778.068 370.229 777.989 370.068C776.373 366.762 772.532 362.922 766.466 358.548C760.251 354.067 750.539 348.279 737.329 341.184C725.551 334.462 716.052 326.807 708.832 318.218C702.07 309.256 697.708 298.801 695.745 286.851C693.783 274.902 694.449 261.272 697.744 245.962C704.013 216.835 718.282 194.43 740.551 178.746C763.277 162.689 791.456 154.66 825.085 154.66C842.466 154.66 858.232 156.901 872.382 161.382C885.561 165.555 898.684 171.511 911.751 179.247C913.405 180.226 913.855 182.385 912.816 184.238L878.458 245.509C877.182 247.785 874.253 248.614 872.293 247.312C867.14 243.886 861.664 240.822 855.866 238.12C848.654 234.759 841.471 232.145 834.315 230.278C827.24 228.037 820.491 226.917 814.067 226.917C808.022 226.917 803.246 228.037 799.741 230.278C796.614 232.518 794.528 236.066 793.483 240.92C792.679 244.655 792.941 247.829 794.268 250.443C795.594 253.057 799.216 256.417 805.134 260.525C811.051 264.633 820.196 270.421 832.57 277.889C845.023 284.984 855.049 292.826 862.647 301.414C870.623 310.003 875.97 320.272 878.688 332.222C881.487 343.798 881.077 357.988 877.461 374.792Z"/>
<path d="M1060.96 316.682C1061.39 314.666 1063.28 313.103 1065.32 313.102C1077.96 313.094 1090.11 314.4 1101.77 317.02C1114.62 319.496 1125.34 323.771 1133.93 329.846C1142.52 335.92 1148.7 343.996 1152.46 354.073C1156.81 363.748 1157.45 375.644 1154.39 389.763L1136.26 473.286C1135.83 475.302 1133.95 476.866 1131.91 476.857C1120.68 476.811 1109.52 475.488 1098.44 472.888C1086.26 469.618 1075.38 464.956 1065.79 458.901C1056.69 452.836 1049.64 445.363 1044.63 436.483C1040.2 427.201 1039.26 416.677 1041.82 404.911L1060.96 316.682ZM1113.19 139.848C1113.63 137.832 1115.51 136.268 1117.54 136.322C1123.54 136.482 1131.09 137.277 1140.2 138.707C1151.31 140.046 1161.54 143.159 1170.88 148.047C1180.73 152.926 1188.65 159.795 1194.66 168.656C1200.67 177.516 1202.1 189.201 1198.95 203.712C1196.91 213.125 1193.46 222.175 1188.6 230.863C1184.24 239.541 1178.6 247.269 1171.68 254.046C1164.84 260.431 1156.27 265.68 1145.96 269.792C1136.15 273.893 1125.02 276.069 1112.57 276.32C1092.17 276.73 1078.3 272.128 1070.96 262.513C1064.22 252.496 1062.29 240.821 1065.18 227.486L1065.38 226.57C1065.85 224.424 1068.71 223.62 1069.84 225.315C1070.03 225.596 1070.19 225.726 1070.51 225.858C1071.95 226.453 1074.44 226.714 1078 226.643C1084.97 226.503 1090.01 223.864 1093.1 218.725C1096.29 213.195 1099.03 205.135 1101.32 194.546L1113.19 139.848ZM987.849 53.994C988.286 51.978 990.166 50.4203 992.211 50.3792L996.831 50.2864C1022.72 49.7662 1043.18 54.8216 1058.22 65.4527C1073.76 76.0738 1078.93 93.346 1073.74 117.269L996.783 471.989C996.345 474.005 994.466 475.563 992.421 475.604C992.032 475.612 991.657 475.619 991.295 475.626C990.958 475.633 990.618 475.684 990.282 475.764C988.831 476.105 987.214 476.294 985.433 476.33C974.482 476.55 963.786 475.594 953.345 473.461C943.402 471.318 934.795 467.586 927.524 462.265C920.253 456.945 914.815 450.025 911.212 441.507C908.191 432.587 908.084 421.656 910.892 408.714L987.849 53.994Z"/>
<path d="M388.981 259.279C390.031 254.37 390.547 249.673 390.527 245.19C390.985 240.827 390.391 237.059 388.748 233.886C388.651 233.699 388.568 233.505 388.498 233.304C387.278 229.803 384.731 227.095 380.859 225.181C377.454 222.794 372.068 221.665 364.7 221.792C360.77 221.86 356.464 222.546 351.78 223.849C349.118 224.424 346.486 225.341 343.884 226.6C341.596 227.707 338.878 227.061 338.45 224.769C338.319 224.064 338.233 223.38 338.194 222.716C338.176 222.407 338.208 222.092 338.275 221.78C338.761 219.507 339.209 217.414 339.618 215.5L340.8 209.977C343.6 196.885 352.796 185.925 368.387 177.096C383.978 168.267 402.826 163.662 424.93 163.28C451.456 162.822 470.397 169.22 481.754 182.474C493.69 195.311 496.902 214.617 491.389 240.39L442.274 470.018C441.84 472.044 439.951 473.609 437.897 473.645L437.09 473.659C407.618 474.168 385.756 468.839 371.506 457.673C357.342 446.097 353.017 427.423 358.53 401.649L388.981 259.279ZM240.703 170.014C241.136 167.989 243.025 166.423 245.079 166.388L249.57 166.31C275.113 165.869 295.255 171.227 309.997 182.385C325.23 193.534 330.178 211.587 324.84 236.543L274.281 472.921C273.848 474.946 271.958 476.512 269.905 476.547L269.098 476.561C257.8 476.757 246.765 475.724 235.992 473.465C225.711 471.197 216.472 467.485 208.277 462.327C200.66 456.753 194.824 449.721 190.767 441.231C187.289 432.324 186.95 421.325 189.75 408.233L240.703 170.014ZM556.974 256.376C558.024 251.467 558.539 246.771 558.519 242.288C558.977 237.924 558.384 234.156 556.74 230.983C556.643 230.796 556.56 230.602 556.491 230.402C555.27 226.901 552.724 224.193 548.851 222.279C545.447 219.892 540.06 218.762 532.692 218.889C528.763 218.957 524.456 219.643 519.773 220.947C517.111 221.521 514.479 222.438 511.877 223.697C509.588 224.805 506.894 224.136 506.649 221.796C506.428 219.694 506.574 217.446 507.086 215.052C510.149 200.733 518.712 188.154 532.776 177.313C546.84 166.472 565.661 160.849 589.239 160.441C617.238 159.957 637.161 166.339 649.01 179.585C661.437 192.413 664.894 211.714 659.382 237.488L610.266 467.115C609.833 469.141 607.944 470.707 605.89 470.742L605.083 470.756C575.611 471.266 553.749 465.937 539.498 454.77C525.335 443.195 521.009 424.52 526.522 398.746L556.974 256.376Z"/>
</mask>
<path d="M877.461 374.792C872.88 396.076 864.785 414.374 853.177 429.684C842.027 444.621 827.295 456.01 808.982 463.852C791.046 471.694 769.609 475.615 744.67 475.615C727.666 475.615 711.7 474.308 696.77 471.694C682.72 469.234 668.858 465.12 655.184 459.353C653.652 458.706 652.872 457.083 653.242 455.362L669.743 378.693C670.362 375.817 673.741 374.16 676.14 375.514C687.036 381.664 698.566 386.838 710.73 391.035C725.257 395.516 738.756 397.757 751.225 397.757C759.916 397.757 766.432 396.45 770.773 393.836C775.573 390.849 778.615 386.368 779.901 380.393C780.685 376.751 780.135 373.465 778.25 370.534C778.154 370.384 778.068 370.229 777.989 370.068C776.373 366.762 772.532 362.922 766.466 358.548C760.251 354.067 750.539 348.279 737.329 341.184C725.551 334.462 716.052 326.807 708.832 318.218C702.07 309.256 697.708 298.801 695.745 286.851C693.783 274.902 694.449 261.272 697.744 245.962C704.013 216.835 718.282 194.43 740.551 178.746C763.277 162.689 791.456 154.66 825.085 154.66C842.466 154.66 858.232 156.901 872.382 161.382C885.561 165.555 898.684 171.511 911.751 179.247C913.405 180.226 913.855 182.385 912.816 184.238L878.458 245.509C877.182 247.785 874.253 248.614 872.293 247.312C867.14 243.886 861.664 240.822 855.866 238.12C848.654 234.759 841.471 232.145 834.315 230.278C827.24 228.037 820.491 226.917 814.067 226.917C808.022 226.917 803.246 228.037 799.741 230.278C796.614 232.518 794.528 236.066 793.483 240.92C792.679 244.655 792.941 247.829 794.268 250.443C795.594 253.057 799.216 256.417 805.134 260.525C811.051 264.633 820.196 270.421 832.57 277.889C845.023 284.984 855.049 292.826 862.647 301.414C870.623 310.003 875.97 320.272 878.688 332.222C881.487 343.798 881.077 357.988 877.461 374.792Z" fill="#1E1E1E"/>
<path d="M1060.96 316.682C1061.39 314.666 1063.28 313.103 1065.32 313.102C1077.96 313.094 1090.11 314.4 1101.77 317.02C1114.62 319.496 1125.34 323.771 1133.93 329.846C1142.52 335.92 1148.7 343.996 1152.46 354.073C1156.81 363.748 1157.45 375.644 1154.39 389.763L1136.26 473.286C1135.83 475.302 1133.95 476.866 1131.91 476.857C1120.68 476.811 1109.52 475.488 1098.44 472.888C1086.26 469.618 1075.38 464.956 1065.79 458.901C1056.69 452.836 1049.64 445.363 1044.63 436.483C1040.2 427.201 1039.26 416.677 1041.82 404.911L1060.96 316.682ZM1113.19 139.848C1113.63 137.832 1115.51 136.268 1117.54 136.322C1123.54 136.482 1131.09 137.277 1140.2 138.707C1151.31 140.046 1161.54 143.159 1170.88 148.047C1180.73 152.926 1188.65 159.795 1194.66 168.656C1200.67 177.516 1202.1 189.201 1198.95 203.712C1196.91 213.125 1193.46 222.175 1188.6 230.863C1184.24 239.541 1178.6 247.269 1171.68 254.046C1164.84 260.431 1156.27 265.68 1145.96 269.792C1136.15 273.893 1125.02 276.069 1112.57 276.32C1092.17 276.73 1078.3 272.128 1070.96 262.513C1064.22 252.496 1062.29 240.821 1065.18 227.486L1065.38 226.57C1065.85 224.424 1068.71 223.62 1069.84 225.315C1070.03 225.596 1070.19 225.726 1070.51 225.858C1071.95 226.453 1074.44 226.714 1078 226.643C1084.97 226.503 1090.01 223.864 1093.1 218.725C1096.29 213.195 1099.03 205.135 1101.32 194.546L1113.19 139.848ZM987.849 53.994C988.286 51.978 990.166 50.4203 992.211 50.3792L996.831 50.2864C1022.72 49.7662 1043.18 54.8216 1058.22 65.4527C1073.76 76.0738 1078.93 93.346 1073.74 117.269L996.783 471.989C996.345 474.005 994.466 475.563 992.421 475.604C992.032 475.612 991.657 475.619 991.295 475.626C990.958 475.633 990.618 475.684 990.282 475.764C988.831 476.105 987.214 476.294 985.433 476.33C974.482 476.55 963.786 475.594 953.345 473.461C943.402 471.318 934.795 467.586 927.524 462.265C920.253 456.945 914.815 450.025 911.212 441.507C908.191 432.587 908.084 421.656 910.892 408.714L987.849 53.994Z" fill="#1E1E1E"/>
<path d="M388.981 259.279C390.031 254.37 390.547 249.673 390.527 245.19C390.985 240.827 390.391 237.059 388.748 233.886C388.651 233.699 388.568 233.505 388.498 233.304C387.278 229.803 384.731 227.095 380.859 225.181C377.454 222.794 372.068 221.665 364.7 221.792C360.77 221.86 356.464 222.546 351.78 223.849C349.118 224.424 346.486 225.341 343.884 226.6C341.596 227.707 338.878 227.061 338.45 224.769C338.319 224.064 338.233 223.38 338.194 222.716C338.176 222.407 338.208 222.092 338.275 221.78C338.761 219.507 339.209 217.414 339.618 215.5L340.8 209.977C343.6 196.885 352.796 185.925 368.387 177.096C383.978 168.267 402.826 163.662 424.93 163.28C451.456 162.822 470.397 169.22 481.754 182.474C493.69 195.311 496.902 214.617 491.389 240.39L442.274 470.018C441.84 472.044 439.951 473.609 437.897 473.645L437.09 473.659C407.618 474.168 385.756 468.839 371.506 457.673C357.342 446.097 353.017 427.423 358.53 401.649L388.981 259.279ZM240.703 170.014C241.136 167.989 243.025 166.423 245.079 166.388L249.57 166.31C275.113 165.869 295.255 171.227 309.997 182.385C325.23 193.534 330.178 211.587 324.84 236.543L274.281 472.921C273.848 474.946 271.958 476.512 269.905 476.547L269.098 476.561C257.8 476.757 246.765 475.724 235.992 473.465C225.711 471.197 216.472 467.485 208.277 462.327C200.66 456.753 194.824 449.721 190.767 441.231C187.289 432.324 186.95 421.325 189.75 408.233L240.703 170.014ZM556.974 256.376C558.024 251.467 558.539 246.771 558.519 242.288C558.977 237.924 558.384 234.156 556.74 230.983C556.643 230.796 556.56 230.602 556.491 230.402C555.27 226.901 552.724 224.193 548.851 222.279C545.447 219.892 540.06 218.762 532.692 218.889C528.763 218.957 524.456 219.643 519.773 220.947C517.111 221.521 514.479 222.438 511.877 223.697C509.588 224.805 506.894 224.136 506.649 221.796C506.428 219.694 506.574 217.446 507.086 215.052C510.149 200.733 518.712 188.154 532.776 177.313C546.84 166.472 565.661 160.849 589.239 160.441C617.238 159.957 637.161 166.339 649.01 179.585C661.437 192.413 664.894 211.714 659.382 237.488L610.266 467.115C609.833 469.141 607.944 470.707 605.89 470.742L605.083 470.756C575.611 471.266 553.749 465.937 539.498 454.77C525.335 443.195 521.009 424.52 526.522 398.746L556.974 256.376Z" fill="#1E1E1E"/>
<path d="M877.461 374.792C872.88 396.076 864.785 414.374 853.177 429.684C842.027 444.621 827.295 456.01 808.982 463.852C791.046 471.694 769.609 475.615 744.67 475.615C727.666 475.615 711.7 474.308 696.77 471.694C682.72 469.234 668.858 465.12 655.184 459.353C653.652 458.706 652.872 457.083 653.242 455.362L669.743 378.693C670.362 375.817 673.741 374.16 676.14 375.514C687.036 381.664 698.566 386.838 710.73 391.035C725.257 395.516 738.756 397.757 751.225 397.757C759.916 397.757 766.432 396.45 770.773 393.836C775.573 390.849 778.615 386.368 779.901 380.393C780.685 376.751 780.135 373.465 778.25 370.534C778.154 370.384 778.068 370.229 777.989 370.068C776.373 366.762 772.532 362.922 766.466 358.548C760.251 354.067 750.539 348.279 737.329 341.184C725.551 334.462 716.052 326.807 708.832 318.218C702.07 309.256 697.708 298.801 695.745 286.851C693.783 274.902 694.449 261.272 697.744 245.962C704.013 216.835 718.282 194.43 740.551 178.746C763.277 162.689 791.456 154.66 825.085 154.66C842.466 154.66 858.232 156.901 872.382 161.382C885.561 165.555 898.684 171.511 911.751 179.247C913.405 180.226 913.855 182.385 912.816 184.238L878.458 245.509C877.182 247.785 874.253 248.614 872.293 247.312C867.14 243.886 861.664 240.822 855.866 238.12C848.654 234.759 841.471 232.145 834.315 230.278C827.24 228.037 820.491 226.917 814.067 226.917C808.022 226.917 803.246 228.037 799.741 230.278C796.614 232.518 794.528 236.066 793.483 240.92C792.679 244.655 792.941 247.829 794.268 250.443C795.594 253.057 799.216 256.417 805.134 260.525C811.051 264.633 820.196 270.421 832.57 277.889C845.023 284.984 855.049 292.826 862.647 301.414C870.623 310.003 875.97 320.272 878.688 332.222C881.487 343.798 881.077 357.988 877.461 374.792Z" stroke="#C9D4DA" stroke-width="100" mask="url(#path-1-outside-1_118_2)"/>
<path d="M1060.96 316.682C1061.39 314.666 1063.28 313.103 1065.32 313.102C1077.96 313.094 1090.11 314.4 1101.77 317.02C1114.62 319.496 1125.34 323.771 1133.93 329.846C1142.52 335.92 1148.7 343.996 1152.46 354.073C1156.81 363.748 1157.45 375.644 1154.39 389.763L1136.26 473.286C1135.83 475.302 1133.95 476.866 1131.91 476.857C1120.68 476.811 1109.52 475.488 1098.44 472.888C1086.26 469.618 1075.38 464.956 1065.79 458.901C1056.69 452.836 1049.64 445.363 1044.63 436.483C1040.2 427.201 1039.26 416.677 1041.82 404.911L1060.96 316.682ZM1113.19 139.848C1113.63 137.832 1115.51 136.268 1117.54 136.322C1123.54 136.482 1131.09 137.277 1140.2 138.707C1151.31 140.046 1161.54 143.159 1170.88 148.047C1180.73 152.926 1188.65 159.795 1194.66 168.656C1200.67 177.516 1202.1 189.201 1198.95 203.712C1196.91 213.125 1193.46 222.175 1188.6 230.863C1184.24 239.541 1178.6 247.269 1171.68 254.046C1164.84 260.431 1156.27 265.68 1145.96 269.792C1136.15 273.893 1125.02 276.069 1112.57 276.32C1092.17 276.73 1078.3 272.128 1070.96 262.513C1064.22 252.496 1062.29 240.821 1065.18 227.486L1065.38 226.57C1065.85 224.424 1068.71 223.62 1069.84 225.315C1070.03 225.596 1070.19 225.726 1070.51 225.858C1071.95 226.453 1074.44 226.714 1078 226.643C1084.97 226.503 1090.01 223.864 1093.1 218.725C1096.29 213.195 1099.03 205.135 1101.32 194.546L1113.19 139.848ZM987.849 53.994C988.286 51.978 990.166 50.4203 992.211 50.3792L996.831 50.2864C1022.72 49.7662 1043.18 54.8216 1058.22 65.4527C1073.76 76.0738 1078.93 93.346 1073.74 117.269L996.783 471.989C996.345 474.005 994.466 475.563 992.421 475.604C992.032 475.612 991.657 475.619 991.295 475.626C990.958 475.633 990.618 475.684 990.282 475.764C988.831 476.105 987.214 476.294 985.433 476.33C974.482 476.55 963.786 475.594 953.345 473.461C943.402 471.318 934.795 467.586 927.524 462.265C920.253 456.945 914.815 450.025 911.212 441.507C908.191 432.587 908.084 421.656 910.892 408.714L987.849 53.994Z" stroke="#C9D4DA" stroke-width="100" mask="url(#path-1-outside-1_118_2)"/>
<path d="M388.981 259.279C390.031 254.37 390.547 249.673 390.527 245.19C390.985 240.827 390.391 237.059 388.748 233.886C388.651 233.699 388.568 233.505 388.498 233.304C387.278 229.803 384.731 227.095 380.859 225.181C377.454 222.794 372.068 221.665 364.7 221.792C360.77 221.86 356.464 222.546 351.78 223.849C349.118 224.424 346.486 225.341 343.884 226.6C341.596 227.707 338.878 227.061 338.45 224.769C338.319 224.064 338.233 223.38 338.194 222.716C338.176 222.407 338.208 222.092 338.275 221.78C338.761 219.507 339.209 217.414 339.618 215.5L340.8 209.977C343.6 196.885 352.796 185.925 368.387 177.096C383.978 168.267 402.826 163.662 424.93 163.28C451.456 162.822 470.397 169.22 481.754 182.474C493.69 195.311 496.902 214.617 491.389 240.39L442.274 470.018C441.84 472.044 439.951 473.609 437.897 473.645L437.09 473.659C407.618 474.168 385.756 468.839 371.506 457.673C357.342 446.097 353.017 427.423 358.53 401.649L388.981 259.279ZM240.703 170.014C241.136 167.989 243.025 166.423 245.079 166.388L249.57 166.31C275.113 165.869 295.255 171.227 309.997 182.385C325.23 193.534 330.178 211.587 324.84 236.543L274.281 472.921C273.848 474.946 271.958 476.512 269.905 476.547L269.098 476.561C257.8 476.757 246.765 475.724 235.992 473.465C225.711 471.197 216.472 467.485 208.277 462.327C200.66 456.753 194.824 449.721 190.767 441.231C187.289 432.324 186.95 421.325 189.75 408.233L240.703 170.014ZM556.974 256.376C558.024 251.467 558.539 246.771 558.519 242.288C558.977 237.924 558.384 234.156 556.74 230.983C556.643 230.796 556.56 230.602 556.491 230.402C555.27 226.901 552.724 224.193 548.851 222.279C545.447 219.892 540.06 218.762 532.692 218.889C528.763 218.957 524.456 219.643 519.773 220.947C517.111 221.521 514.479 222.438 511.877 223.697C509.588 224.805 506.894 224.136 506.649 221.796C506.428 219.694 506.574 217.446 507.086 215.052C510.149 200.733 518.712 188.154 532.776 177.313C546.84 166.472 565.661 160.849 589.239 160.441C617.238 159.957 637.161 166.339 649.01 179.585C661.437 192.413 664.894 211.714 659.382 237.488L610.266 467.115C609.833 469.141 607.944 470.707 605.89 470.742L605.083 470.756C575.611 471.266 553.749 465.937 539.498 454.77C525.335 443.195 521.009 424.52 526.522 398.746L556.974 256.376Z" stroke="#C9D4DA" stroke-width="100" mask="url(#path-1-outside-1_118_2)"/>
<path d="M1043.36 323.435C1057.12 322.283 1067.34 310.196 1066.18 296.437C1065.03 282.678 1052.94 272.458 1039.19 273.61L1043.36 323.435ZM166.983 396.803L1043.36 323.435L1039.19 273.61L162.812 346.978L166.983 396.803Z" fill="#C9D4DA"/>
<path d="M20.1993 387.886C17.3593 387.16 16.9975 383.273 19.6546 382.035L66.1024 360.397C66.9275 360.013 67.5436 359.287 67.7892 358.411L81.3367 310.054C82.1085 307.299 85.8714 306.949 87.1384 309.514L109.186 354.147C109.696 355.18 110.733 355.847 111.884 355.884L251.317 360.31C254.987 360.427 255.476 365.683 251.891 366.475L115.671 396.564C114.547 396.812 113.651 397.66 113.34 398.769L99.9101 446.705C99.1384 449.46 95.3755 449.81 94.1085 447.245L71.8676 402.22C71.4644 401.404 70.725 400.804 69.8431 400.579L20.1993 387.886Z" fill="#1E1E1E"/>
<path d="M42.4313 385.765C39.5913 385.039 39.2294 381.152 41.8865 379.914L72.7481 365.536C73.5732 365.151 74.1893 364.426 74.4348 363.549L83.465 331.314C84.2367 328.559 87.9996 328.209 89.2666 330.774L103.9 360.396C104.41 361.429 105.447 362.096 106.598 362.133L199.493 365.079C203.163 365.196 203.652 370.452 200.067 371.244L109.314 391.292C108.189 391.541 107.293 392.388 106.982 393.497L98.07 425.312C97.2984 428.067 93.5354 428.417 92.2684 425.853L77.4416 395.839C77.0384 395.023 76.2989 394.423 75.417 394.198L42.4313 385.765Z" fill="#C9D4DA"/>
</svg>
