<svg width="1526" height="624" viewBox="0 0 1526 624" fill="none" xmlns="http://www.w3.org/2000/svg">
<mask id="path-1-outside-1_77_77" maskUnits="userSpaceOnUse" x="165.766" y="0.398651" width="1388.27" height="623.985" fill="black">
<rect fill="white" x="165.766" y="0.398651" width="1388.27" height="623.985"/>
<path d="M1077.83 448.549C1072.21 474.687 1062.27 497.157 1048.01 515.959C1034.32 534.302 1016.23 548.288 993.74 557.918C971.714 567.548 945.389 572.363 914.763 572.363C893.882 572.363 874.274 570.759 855.94 567.548C837.606 564.338 819.533 558.836 801.722 551.04L824.374 445.797C839.569 454.969 855.805 462.535 873.083 468.497C890.923 474 907.5 476.751 922.813 476.751C933.486 476.751 941.487 475.146 946.819 471.936C952.712 468.267 956.449 462.764 958.028 455.427C959.015 450.842 958.279 446.714 955.821 443.046C953.925 438.919 949.161 434.104 941.529 428.601C933.897 423.098 921.97 415.99 905.748 407.277C891.284 399.023 879.619 389.622 870.752 379.075C862.448 368.069 857.092 355.229 854.682 340.555C852.272 325.88 853.09 309.142 857.137 290.341C864.835 254.572 882.358 227.058 909.704 207.798C937.614 188.079 972.217 178.22 1013.52 178.22C1034.86 178.22 1054.22 180.971 1071.6 186.474C1088.97 191.977 1106.27 200.002 1123.49 210.549L1076.05 295.156C1068.42 289.653 1060.17 284.838 1051.32 280.711C1042.46 276.584 1033.64 273.374 1024.85 271.081C1016.16 268.329 1007.87 266.954 999.985 266.954C992.561 266.954 986.697 268.329 982.392 271.081C978.552 273.832 975.99 278.189 974.707 284.15C973.72 288.736 974.041 292.634 975.67 295.844C977.3 299.054 981.748 303.181 989.014 308.225C996.281 313.27 1007.51 320.377 1022.71 329.549C1038 338.262 1050.31 347.892 1059.64 358.439C1069.44 368.986 1076 381.597 1079.34 396.271C1082.78 410.487 1082.28 427.913 1077.83 448.549Z"/>
<path d="M1304.12 372.838C1321.24 372.494 1337.63 374.082 1353.3 377.604C1369.07 380.643 1382.23 385.893 1392.79 393.353C1403.34 400.814 1410.93 410.731 1415.55 423.106C1420.88 434.986 1421.67 449.596 1417.91 466.934L1394.71 573.854C1379.43 574.161 1364.26 572.548 1349.2 569.014C1334.25 564.999 1320.88 559.274 1309.11 551.838C1297.94 544.39 1289.28 535.213 1283.13 524.308C1277.69 512.909 1276.53 499.985 1279.67 485.537L1304.12 372.838ZM1368.26 155.68C1376.21 155.52 1386.95 156.503 1400.49 158.628C1414.13 160.272 1426.69 164.096 1438.17 170.099C1450.26 176.09 1459.99 184.526 1467.37 195.406C1474.75 206.287 1476.5 220.637 1472.64 238.457C1470.13 250.016 1465.89 261.13 1459.93 271.799C1454.57 282.456 1447.64 291.946 1439.14 300.269C1430.75 308.11 1420.22 314.555 1407.56 319.605C1395.51 324.642 1381.85 327.314 1366.56 327.622C1341.5 328.125 1324.47 322.474 1315.46 310.667C1307.18 298.366 1304.81 284.028 1308.36 267.653L1310.09 259.706C1312.01 262.065 1313.43 263.954 1314.34 265.375C1315.96 266.301 1319.22 266.715 1324.11 266.617C1332.67 266.445 1338.85 263.204 1342.65 256.894C1346.56 250.102 1349.92 240.204 1352.74 227.2L1368.26 155.68ZM1214.34 50.2474L1224.43 50.0447C1256.21 49.4059 1281.34 55.6141 1299.81 68.6695C1318.89 81.7125 1325.25 102.923 1318.87 132.302L1223.42 572.261C1220.98 572.31 1218.84 572.353 1217 572.39C1215.07 572.909 1212.87 573.192 1210.43 573.242C1196.98 573.512 1183.85 572.337 1171.02 569.718C1158.81 567.086 1148.24 562.503 1139.31 555.97C1130.38 549.436 1123.71 540.939 1119.28 530.478C1115.57 519.524 1115.44 506.1 1118.89 490.206L1214.34 50.2474Z"/>
<path d="M477.964 306.695C479.254 300.666 479.886 294.899 479.862 289.393C480.441 283.877 479.652 279.136 477.496 275.169C476.05 270.689 472.881 267.24 467.989 264.822C463.809 261.891 457.194 260.503 448.146 260.66C443.32 260.743 438.031 261.585 432.28 263.186C427.239 264.274 422.285 266.362 417.418 269.45C416.253 266.466 415.638 263.724 415.572 261.222C416.217 258.208 416.808 255.445 417.345 252.933L418.796 246.15C422.234 230.074 433.527 216.614 452.674 205.772C471.82 194.93 494.966 189.274 522.111 188.805C554.685 188.242 577.945 196.099 591.893 212.376C606.551 228.14 610.495 251.848 603.725 283.499L542.473 569.868L537.044 569.961C500.851 570.587 474.004 564.043 456.503 550.33C439.11 536.115 433.799 513.182 440.569 481.53L477.964 306.695ZM296.809 192.698L306.762 192.526C338.129 191.984 362.865 198.564 380.969 212.266C399.676 225.959 405.752 248.128 399.197 278.774L336.172 573.432L330.743 573.526C316.869 573.765 303.317 572.498 290.088 569.723C277.462 566.938 266.117 562.379 256.053 556.046C246.699 549.2 239.532 540.564 234.55 530.139C230.278 519.201 229.862 505.693 233.301 489.616L296.809 192.698ZM684.265 303.131C685.555 297.102 686.187 291.335 686.163 285.829C686.742 280.313 685.953 275.571 683.797 271.604C682.351 267.124 679.182 263.675 674.29 261.257C670.109 258.326 663.495 256.939 654.446 257.095C649.621 257.179 644.332 258.021 638.581 259.622C633.54 260.71 628.586 262.798 623.719 265.885C622.166 261.908 621.926 257.407 623.001 252.383C626.762 234.799 637.278 219.351 654.549 206.038C671.82 192.725 694.933 185.819 723.888 185.319C758.271 184.725 782.738 192.561 797.289 208.827C812.55 224.581 816.795 248.284 810.026 279.935L748.774 566.303L743.345 566.397C707.152 567.022 680.305 560.479 662.804 546.766C645.411 532.55 640.1 509.617 646.87 477.966L684.265 303.131Z"/>
</mask>
<path d="M1077.83 448.549C1072.21 474.687 1062.27 497.157 1048.01 515.959C1034.32 534.302 1016.23 548.288 993.74 557.918C971.714 567.548 945.389 572.363 914.763 572.363C893.882 572.363 874.274 570.759 855.94 567.548C837.606 564.338 819.533 558.836 801.722 551.04L824.374 445.797C839.569 454.969 855.805 462.535 873.083 468.497C890.923 474 907.5 476.751 922.813 476.751C933.486 476.751 941.487 475.146 946.819 471.936C952.712 468.267 956.449 462.764 958.028 455.427C959.015 450.842 958.279 446.714 955.821 443.046C953.925 438.919 949.161 434.104 941.529 428.601C933.897 423.098 921.97 415.99 905.748 407.277C891.284 399.023 879.619 389.622 870.752 379.075C862.448 368.069 857.092 355.229 854.682 340.555C852.272 325.88 853.09 309.142 857.137 290.341C864.835 254.572 882.358 227.058 909.704 207.798C937.614 188.079 972.217 178.22 1013.52 178.22C1034.86 178.22 1054.22 180.971 1071.6 186.474C1088.97 191.977 1106.27 200.002 1123.49 210.549L1076.05 295.156C1068.42 289.653 1060.17 284.838 1051.32 280.711C1042.46 276.584 1033.64 273.374 1024.85 271.081C1016.16 268.329 1007.87 266.954 999.985 266.954C992.561 266.954 986.697 268.329 982.392 271.081C978.552 273.832 975.99 278.189 974.707 284.15C973.72 288.736 974.041 292.634 975.67 295.844C977.3 299.054 981.748 303.181 989.014 308.225C996.281 313.27 1007.51 320.377 1022.71 329.549C1038 338.262 1050.31 347.892 1059.64 358.439C1069.44 368.986 1076 381.597 1079.34 396.271C1082.78 410.487 1082.28 427.913 1077.83 448.549Z" fill="#1E1E1E"/>
<path d="M1304.12 372.838C1321.24 372.494 1337.63 374.082 1353.3 377.604C1369.07 380.643 1382.23 385.893 1392.79 393.353C1403.34 400.814 1410.93 410.731 1415.55 423.106C1420.88 434.986 1421.67 449.596 1417.91 466.934L1394.71 573.854C1379.43 574.161 1364.26 572.548 1349.2 569.014C1334.25 564.999 1320.88 559.274 1309.11 551.838C1297.94 544.39 1289.28 535.213 1283.13 524.308C1277.69 512.909 1276.53 499.985 1279.67 485.537L1304.12 372.838ZM1368.26 155.68C1376.21 155.52 1386.95 156.503 1400.49 158.628C1414.13 160.272 1426.69 164.096 1438.17 170.099C1450.26 176.09 1459.99 184.526 1467.37 195.406C1474.75 206.287 1476.5 220.637 1472.64 238.457C1470.13 250.016 1465.89 261.13 1459.93 271.799C1454.57 282.456 1447.64 291.946 1439.14 300.269C1430.75 308.11 1420.22 314.555 1407.56 319.605C1395.51 324.642 1381.85 327.314 1366.56 327.622C1341.5 328.125 1324.47 322.474 1315.46 310.667C1307.18 298.366 1304.81 284.028 1308.36 267.653L1310.09 259.706C1312.01 262.065 1313.43 263.954 1314.34 265.375C1315.96 266.301 1319.22 266.715 1324.11 266.617C1332.67 266.445 1338.85 263.204 1342.65 256.894C1346.56 250.102 1349.92 240.204 1352.74 227.2L1368.26 155.68ZM1214.34 50.2474L1224.43 50.0447C1256.21 49.4059 1281.34 55.6141 1299.81 68.6695C1318.89 81.7125 1325.25 102.923 1318.87 132.302L1223.42 572.261C1220.98 572.31 1218.84 572.353 1217 572.39C1215.07 572.909 1212.87 573.192 1210.43 573.242C1196.98 573.512 1183.85 572.337 1171.02 569.718C1158.81 567.086 1148.24 562.503 1139.31 555.97C1130.38 549.436 1123.71 540.939 1119.28 530.478C1115.57 519.524 1115.44 506.1 1118.89 490.206L1214.34 50.2474Z" fill="#1E1E1E"/>
<path d="M477.964 306.695C479.254 300.666 479.886 294.899 479.862 289.393C480.441 283.877 479.652 279.136 477.496 275.169C476.05 270.689 472.881 267.24 467.989 264.822C463.809 261.891 457.194 260.503 448.146 260.66C443.32 260.743 438.031 261.585 432.28 263.186C427.239 264.274 422.285 266.362 417.418 269.45C416.253 266.466 415.638 263.724 415.572 261.222C416.217 258.208 416.808 255.445 417.345 252.933L418.796 246.15C422.234 230.074 433.527 216.614 452.674 205.772C471.82 194.93 494.966 189.274 522.111 188.805C554.685 188.242 577.945 196.099 591.893 212.376C606.551 228.14 610.495 251.848 603.725 283.499L542.473 569.868L537.044 569.961C500.851 570.587 474.004 564.043 456.503 550.33C439.11 536.115 433.799 513.182 440.569 481.53L477.964 306.695ZM296.809 192.698L306.762 192.526C338.129 191.984 362.865 198.564 380.969 212.266C399.676 225.959 405.752 248.128 399.197 278.774L336.172 573.432L330.743 573.526C316.869 573.765 303.317 572.498 290.088 569.723C277.462 566.938 266.117 562.379 256.053 556.046C246.699 549.2 239.532 540.564 234.55 530.139C230.278 519.201 229.862 505.693 233.301 489.616L296.809 192.698ZM684.265 303.131C685.555 297.102 686.187 291.335 686.163 285.829C686.742 280.313 685.953 275.571 683.797 271.604C682.351 267.124 679.182 263.675 674.29 261.257C670.109 258.326 663.495 256.939 654.446 257.095C649.621 257.179 644.332 258.021 638.581 259.622C633.54 260.71 628.586 262.798 623.719 265.885C622.166 261.908 621.926 257.407 623.001 252.383C626.762 234.799 637.278 219.351 654.549 206.038C671.82 192.725 694.933 185.819 723.888 185.319C758.271 184.725 782.738 192.561 797.289 208.827C812.55 224.581 816.795 248.284 810.026 279.935L748.774 566.303L743.345 566.397C707.152 567.022 680.305 560.479 662.804 546.766C645.411 532.55 640.1 509.617 646.87 477.966L684.265 303.131Z" fill="#1E1E1E"/>
<path d="M1077.83 448.549C1072.21 474.687 1062.27 497.157 1048.01 515.959C1034.32 534.302 1016.23 548.288 993.74 557.918C971.714 567.548 945.389 572.363 914.763 572.363C893.882 572.363 874.274 570.759 855.94 567.548C837.606 564.338 819.533 558.836 801.722 551.04L824.374 445.797C839.569 454.969 855.805 462.535 873.083 468.497C890.923 474 907.5 476.751 922.813 476.751C933.486 476.751 941.487 475.146 946.819 471.936C952.712 468.267 956.449 462.764 958.028 455.427C959.015 450.842 958.279 446.714 955.821 443.046C953.925 438.919 949.161 434.104 941.529 428.601C933.897 423.098 921.97 415.99 905.748 407.277C891.284 399.023 879.619 389.622 870.752 379.075C862.448 368.069 857.092 355.229 854.682 340.555C852.272 325.88 853.09 309.142 857.137 290.341C864.835 254.572 882.358 227.058 909.704 207.798C937.614 188.079 972.217 178.22 1013.52 178.22C1034.86 178.22 1054.22 180.971 1071.6 186.474C1088.97 191.977 1106.27 200.002 1123.49 210.549L1076.05 295.156C1068.42 289.653 1060.17 284.838 1051.32 280.711C1042.46 276.584 1033.64 273.374 1024.85 271.081C1016.16 268.329 1007.87 266.954 999.985 266.954C992.561 266.954 986.697 268.329 982.392 271.081C978.552 273.832 975.99 278.189 974.707 284.15C973.72 288.736 974.041 292.634 975.67 295.844C977.3 299.054 981.748 303.181 989.014 308.225C996.281 313.27 1007.51 320.377 1022.71 329.549C1038 338.262 1050.31 347.892 1059.64 358.439C1069.44 368.986 1076 381.597 1079.34 396.271C1082.78 410.487 1082.28 427.913 1077.83 448.549Z" stroke="#C9D4DA" stroke-width="100" mask="url(#path-1-outside-1_77_77)"/>
<path d="M1304.12 372.838C1321.24 372.494 1337.63 374.082 1353.3 377.604C1369.07 380.643 1382.23 385.893 1392.79 393.353C1403.34 400.814 1410.93 410.731 1415.55 423.106C1420.88 434.986 1421.67 449.596 1417.91 466.934L1394.71 573.854C1379.43 574.161 1364.26 572.548 1349.2 569.014C1334.25 564.999 1320.88 559.274 1309.11 551.838C1297.94 544.39 1289.28 535.213 1283.13 524.308C1277.69 512.909 1276.53 499.985 1279.67 485.537L1304.12 372.838ZM1368.26 155.68C1376.21 155.52 1386.95 156.503 1400.49 158.628C1414.13 160.272 1426.69 164.096 1438.17 170.099C1450.26 176.09 1459.99 184.526 1467.37 195.406C1474.75 206.287 1476.5 220.637 1472.64 238.457C1470.13 250.016 1465.89 261.13 1459.93 271.799C1454.57 282.456 1447.64 291.946 1439.14 300.269C1430.75 308.11 1420.22 314.555 1407.56 319.605C1395.51 324.642 1381.85 327.314 1366.56 327.622C1341.5 328.125 1324.47 322.474 1315.46 310.667C1307.18 298.366 1304.81 284.028 1308.36 267.653L1310.09 259.706C1312.01 262.065 1313.43 263.954 1314.34 265.375C1315.96 266.301 1319.22 266.715 1324.11 266.617C1332.67 266.445 1338.85 263.204 1342.65 256.894C1346.56 250.102 1349.92 240.204 1352.74 227.2L1368.26 155.68ZM1214.34 50.2474L1224.43 50.0447C1256.21 49.4059 1281.34 55.6141 1299.81 68.6695C1318.89 81.7125 1325.25 102.923 1318.87 132.302L1223.42 572.261C1220.98 572.31 1218.84 572.353 1217 572.39C1215.07 572.909 1212.87 573.192 1210.43 573.242C1196.98 573.512 1183.85 572.337 1171.02 569.718C1158.81 567.086 1148.24 562.503 1139.31 555.97C1130.38 549.436 1123.71 540.939 1119.28 530.478C1115.57 519.524 1115.44 506.1 1118.89 490.206L1214.34 50.2474Z" stroke="#C9D4DA" stroke-width="100" mask="url(#path-1-outside-1_77_77)"/>
<path d="M477.964 306.695C479.254 300.666 479.886 294.899 479.862 289.393C480.441 283.877 479.652 279.136 477.496 275.169C476.05 270.689 472.881 267.24 467.989 264.822C463.809 261.891 457.194 260.503 448.146 260.66C443.32 260.743 438.031 261.585 432.28 263.186C427.239 264.274 422.285 266.362 417.418 269.45C416.253 266.466 415.638 263.724 415.572 261.222C416.217 258.208 416.808 255.445 417.345 252.933L418.796 246.15C422.234 230.074 433.527 216.614 452.674 205.772C471.82 194.93 494.966 189.274 522.111 188.805C554.685 188.242 577.945 196.099 591.893 212.376C606.551 228.14 610.495 251.848 603.725 283.499L542.473 569.868L537.044 569.961C500.851 570.587 474.004 564.043 456.503 550.33C439.11 536.115 433.799 513.182 440.569 481.53L477.964 306.695ZM296.809 192.698L306.762 192.526C338.129 191.984 362.865 198.564 380.969 212.266C399.676 225.959 405.752 248.128 399.197 278.774L336.172 573.432L330.743 573.526C316.869 573.765 303.317 572.498 290.088 569.723C277.462 566.938 266.117 562.379 256.053 556.046C246.699 549.2 239.532 540.564 234.55 530.139C230.278 519.201 229.862 505.693 233.301 489.616L296.809 192.698ZM684.265 303.131C685.555 297.102 686.187 291.335 686.163 285.829C686.742 280.313 685.953 275.571 683.797 271.604C682.351 267.124 679.182 263.675 674.29 261.257C670.109 258.326 663.495 256.939 654.446 257.095C649.621 257.179 644.332 258.021 638.581 259.622C633.54 260.71 628.586 262.798 623.719 265.885C622.166 261.908 621.926 257.407 623.001 252.383C626.762 234.799 637.278 219.351 654.549 206.038C671.82 192.725 694.933 185.819 723.888 185.319C758.271 184.725 782.738 192.561 797.289 208.827C812.55 224.581 816.795 248.284 810.026 279.935L748.774 566.303L743.345 566.397C707.152 567.022 680.305 560.479 662.804 546.766C645.411 532.55 640.1 509.617 646.87 477.966L684.265 303.131Z" stroke="#C9D4DA" stroke-width="100" mask="url(#path-1-outside-1_77_77)"/>
<path d="M1281.11 379.812C1294.87 378.644 1305.08 366.544 1303.91 352.787C1302.74 339.029 1290.64 328.823 1276.89 329.991L1281.11 379.812ZM143.295 476.411L1281.11 379.812L1276.89 329.991L139.066 426.59L143.295 476.411Z" fill="#C9D4DA"/>
<path d="M23.1532 465.336C20.3146 464.611 19.9529 460.725 22.6087 459.488L81.7543 431.934C82.579 431.55 83.1948 430.825 83.4402 429.949L100.667 368.458C101.439 365.705 105.2 365.355 106.466 367.918L134.555 424.781C135.064 425.813 136.101 426.48 137.252 426.517L314.599 432.147C318.267 432.264 318.756 437.518 315.173 438.309L141.912 476.579C140.788 476.827 139.892 477.674 139.582 478.783L122.473 539.853C121.701 542.607 117.94 542.957 116.674 540.393L88.392 483.139C87.989 482.323 87.2499 481.724 86.3684 481.499L23.1532 465.336Z" fill="#C9D4DA"/>
<path d="M50.4549 462.771C47.6164 462.045 47.2546 458.16 49.9104 456.922L89.9155 438.284C90.7402 437.9 91.356 437.175 91.6014 436.299L103.281 394.605C104.052 391.852 107.813 391.502 109.08 394.065L128.064 432.494C128.573 433.526 129.61 434.193 130.761 434.23L250.957 438.043C254.625 438.159 255.115 443.413 251.531 444.205L134.105 470.145C132.981 470.393 132.085 471.24 131.775 472.349L120.213 513.622C119.442 516.375 115.68 516.725 114.414 514.162L95.2371 475.342C94.8341 474.526 94.095 473.927 93.2135 473.702L50.4549 462.771Z" fill="#1E1E1E"/>
</svg>
