<svg width="1858" height="636" viewBox="0 0 1858 636" fill="none" xmlns="http://www.w3.org/2000/svg">
<mask id="path-1-outside-1_216_65" maskUnits="userSpaceOnUse" x="191.096" y="0.668541" width="1691.86" height="628.269" fill="black">
<rect fill="white" x="191.096" y="0.668541" width="1691.86" height="628.269"/>
<path d="M1304.71 449.828C1297.8 475.723 1285.61 497.983 1268.11 516.609C1251.31 534.781 1229.11 548.637 1201.51 558.177C1174.49 567.717 1142.18 572.487 1104.6 572.487C1078.98 572.487 1054.92 570.897 1032.42 567.717C1009.92 564.537 987.748 559.086 965.892 551.363L993.687 447.102C1012.33 456.188 1032.26 463.684 1053.46 469.59C1075.35 475.041 1095.69 477.767 1114.48 477.767C1127.58 477.767 1137.4 476.177 1143.94 472.997C1151.17 469.363 1155.76 463.911 1157.69 456.643C1158.9 452.1 1158 448.011 1154.98 444.377C1152.66 440.288 1146.81 435.518 1137.45 430.067C1128.08 424.615 1113.45 417.573 1093.54 408.942C1075.79 400.765 1061.48 391.452 1050.6 381.003C1040.41 370.1 1033.83 357.38 1030.88 342.842C1027.92 328.305 1028.92 311.723 1033.89 293.097C1043.34 257.663 1064.84 230.405 1098.4 211.325C1132.64 191.79 1175.1 182.023 1225.78 182.023C1251.97 182.023 1275.73 184.749 1297.05 190.2C1318.38 195.652 1339.6 203.602 1360.73 214.05L1302.51 297.867C1293.15 292.416 1283.03 287.646 1272.17 283.557C1261.3 279.469 1250.47 276.288 1239.69 274.017C1229.03 271.291 1218.86 269.928 1209.18 269.928C1200.07 269.928 1192.87 271.291 1187.59 274.017C1182.88 276.743 1179.73 281.059 1178.16 286.964C1176.95 291.507 1177.34 295.369 1179.34 298.549C1181.34 301.729 1186.8 305.818 1195.72 310.815C1204.63 315.812 1218.41 322.853 1237.06 331.939C1255.83 340.571 1270.93 350.111 1282.38 360.56C1294.4 371.008 1302.46 383.502 1306.56 398.039C1310.77 412.122 1310.16 429.385 1304.71 449.828Z"/>
<path d="M1582.38 374.824C1603.38 374.483 1623.5 376.057 1642.72 379.545C1662.08 382.557 1678.23 387.758 1691.18 395.148C1704.14 402.539 1713.44 412.364 1719.11 424.623C1725.66 436.393 1726.62 450.866 1722.01 468.042L1693.54 573.964C1674.79 574.268 1656.18 572.67 1637.7 569.169C1619.35 565.191 1602.95 559.519 1588.5 552.153C1574.8 544.775 1564.17 535.684 1556.62 524.88C1549.94 513.588 1548.53 500.785 1552.38 486.471L1582.38 374.824ZM1661.09 159.693C1670.84 159.535 1684.02 160.509 1700.63 162.614C1717.37 164.243 1732.78 168.031 1746.87 173.978C1761.71 179.913 1773.65 188.27 1782.7 199.049C1791.76 209.828 1793.91 224.044 1789.17 241.698C1786.09 253.149 1780.89 264.159 1773.57 274.729C1767 285.286 1758.5 294.688 1748.07 302.933C1737.76 310.701 1724.84 317.086 1709.31 322.088C1694.53 327.078 1677.76 329.726 1659 330.03C1628.25 330.529 1607.35 324.93 1596.3 313.233C1586.13 301.047 1583.23 286.843 1587.59 270.621L1589.7 262.748C1592.06 265.085 1593.8 266.957 1594.92 268.364C1596.91 269.282 1600.91 269.692 1606.91 269.595C1617.41 269.424 1624.99 266.214 1629.66 259.962C1634.46 253.234 1638.59 243.428 1642.05 230.546L1661.09 159.693ZM1472.21 55.2451L1484.59 55.0443C1523.59 54.4114 1554.43 60.5617 1577.09 73.4952C1600.51 86.4165 1608.3 107.429 1600.48 136.534L1483.36 572.386C1480.36 572.435 1477.73 572.477 1475.48 572.514C1473.1 573.027 1470.41 573.308 1467.41 573.357C1450.91 573.625 1434.79 572.461 1419.06 569.866C1404.08 567.259 1391.1 562.719 1380.15 556.246C1369.19 549.773 1361 541.356 1355.57 530.993C1351.01 520.141 1350.85 506.842 1355.09 491.097L1472.21 55.2451Z"/>
<path d="M568.611 309.299C570.193 303.326 570.97 297.613 570.94 292.159C571.65 286.694 570.682 281.997 568.036 278.067C566.262 273.629 562.374 270.212 556.371 267.816C551.241 264.913 543.124 263.538 532.021 263.693C526.099 263.776 519.61 264.61 512.552 266.196C506.367 267.274 500.288 269.342 494.315 272.401C492.886 269.446 492.131 266.729 492.05 264.251C492.841 261.264 493.566 258.527 494.225 256.038L496.005 249.319C500.225 233.393 514.082 220.059 537.577 209.318C561.072 198.577 589.474 192.974 622.783 192.509C662.754 191.952 691.297 199.735 708.412 215.86C726.398 231.477 731.238 254.964 722.93 286.32L647.769 570.015L641.107 570.108C596.695 570.727 563.751 564.244 542.277 550.659C520.934 536.577 514.416 513.858 522.723 482.502L568.611 309.299ZM346.317 196.366L358.53 196.195C397.021 195.658 427.374 202.177 449.589 215.752C472.544 229.316 480 251.278 471.956 281.639L394.619 573.546L387.957 573.639C370.932 573.876 354.303 572.62 338.07 569.872C322.576 567.113 308.655 562.596 296.305 556.322C284.828 549.54 276.032 540.985 269.919 530.657C264.677 519.821 264.167 506.439 268.386 490.513L346.317 196.366ZM821.761 305.768C823.344 299.795 824.12 294.082 824.09 288.628C824.8 283.163 823.832 278.466 821.186 274.536C819.412 270.098 815.524 266.681 809.521 264.285C804.391 261.381 796.274 260.007 785.171 260.162C779.249 260.245 772.76 261.079 765.702 262.665C759.517 263.743 753.438 265.811 747.465 268.87C745.559 264.929 745.266 260.471 746.584 255.494C751.199 238.074 764.104 222.77 785.297 209.581C806.49 196.393 834.852 189.551 870.382 189.056C912.573 188.467 942.597 196.23 960.451 212.345C979.178 227.951 984.388 251.433 976.081 282.788L900.919 566.483L894.257 566.576C849.845 567.196 816.901 560.713 795.427 547.128C774.084 533.046 767.566 510.327 775.873 478.971L821.761 305.768Z"/>
</mask>
<path d="M1304.71 449.828C1297.8 475.723 1285.61 497.983 1268.11 516.609C1251.31 534.781 1229.11 548.637 1201.51 558.177C1174.49 567.717 1142.18 572.487 1104.6 572.487C1078.98 572.487 1054.92 570.897 1032.42 567.717C1009.92 564.537 987.748 559.086 965.892 551.363L993.687 447.102C1012.33 456.188 1032.26 463.684 1053.46 469.59C1075.35 475.041 1095.69 477.767 1114.48 477.767C1127.58 477.767 1137.4 476.177 1143.94 472.997C1151.17 469.363 1155.76 463.911 1157.69 456.643C1158.9 452.1 1158 448.011 1154.98 444.377C1152.66 440.288 1146.81 435.518 1137.45 430.067C1128.08 424.615 1113.45 417.573 1093.54 408.942C1075.79 400.765 1061.48 391.452 1050.6 381.003C1040.41 370.1 1033.83 357.38 1030.88 342.842C1027.92 328.305 1028.92 311.723 1033.89 293.097C1043.34 257.663 1064.84 230.405 1098.4 211.325C1132.64 191.79 1175.1 182.023 1225.78 182.023C1251.97 182.023 1275.73 184.749 1297.05 190.2C1318.38 195.652 1339.6 203.602 1360.73 214.05L1302.51 297.867C1293.15 292.416 1283.03 287.646 1272.17 283.557C1261.3 279.469 1250.47 276.288 1239.69 274.017C1229.03 271.291 1218.86 269.928 1209.18 269.928C1200.07 269.928 1192.87 271.291 1187.59 274.017C1182.88 276.743 1179.73 281.059 1178.16 286.964C1176.95 291.507 1177.34 295.369 1179.34 298.549C1181.34 301.729 1186.8 305.818 1195.72 310.815C1204.63 315.812 1218.41 322.853 1237.06 331.939C1255.83 340.571 1270.93 350.111 1282.38 360.56C1294.4 371.008 1302.46 383.502 1306.56 398.039C1310.77 412.122 1310.16 429.385 1304.71 449.828Z" fill="#1E1E1E"/>
<path d="M1582.38 374.824C1603.38 374.483 1623.5 376.057 1642.72 379.545C1662.08 382.557 1678.23 387.758 1691.18 395.148C1704.14 402.539 1713.44 412.364 1719.11 424.623C1725.66 436.393 1726.62 450.866 1722.01 468.042L1693.54 573.964C1674.79 574.268 1656.18 572.67 1637.7 569.169C1619.35 565.191 1602.95 559.519 1588.5 552.153C1574.8 544.775 1564.17 535.684 1556.62 524.88C1549.94 513.588 1548.53 500.785 1552.38 486.471L1582.38 374.824ZM1661.09 159.693C1670.84 159.535 1684.02 160.509 1700.63 162.614C1717.37 164.243 1732.78 168.031 1746.87 173.978C1761.71 179.913 1773.65 188.27 1782.7 199.049C1791.76 209.828 1793.91 224.044 1789.17 241.698C1786.09 253.149 1780.89 264.159 1773.57 274.729C1767 285.286 1758.5 294.688 1748.07 302.933C1737.76 310.701 1724.84 317.086 1709.31 322.088C1694.53 327.078 1677.76 329.726 1659 330.03C1628.25 330.529 1607.35 324.93 1596.3 313.233C1586.13 301.047 1583.23 286.843 1587.59 270.621L1589.7 262.748C1592.06 265.085 1593.8 266.957 1594.92 268.364C1596.91 269.282 1600.91 269.692 1606.91 269.595C1617.41 269.424 1624.99 266.214 1629.66 259.962C1634.46 253.234 1638.59 243.428 1642.05 230.546L1661.09 159.693ZM1472.21 55.2451L1484.59 55.0443C1523.59 54.4114 1554.43 60.5617 1577.09 73.4952C1600.51 86.4165 1608.3 107.429 1600.48 136.534L1483.36 572.386C1480.36 572.435 1477.73 572.477 1475.48 572.514C1473.1 573.027 1470.41 573.308 1467.41 573.357C1450.91 573.625 1434.79 572.461 1419.06 569.866C1404.08 567.259 1391.1 562.719 1380.15 556.246C1369.19 549.773 1361 541.356 1355.57 530.993C1351.01 520.141 1350.85 506.842 1355.09 491.097L1472.21 55.2451Z" fill="#1E1E1E"/>
<path d="M568.611 309.299C570.193 303.326 570.97 297.613 570.94 292.159C571.65 286.694 570.682 281.997 568.036 278.067C566.262 273.629 562.374 270.212 556.371 267.816C551.241 264.913 543.124 263.538 532.021 263.693C526.099 263.776 519.61 264.61 512.552 266.196C506.367 267.274 500.288 269.342 494.315 272.401C492.886 269.446 492.131 266.729 492.05 264.251C492.841 261.264 493.566 258.527 494.225 256.038L496.005 249.319C500.225 233.393 514.082 220.059 537.577 209.318C561.072 198.577 589.474 192.974 622.783 192.509C662.754 191.952 691.297 199.735 708.412 215.86C726.398 231.477 731.238 254.964 722.93 286.32L647.769 570.015L641.107 570.108C596.695 570.727 563.751 564.244 542.277 550.659C520.934 536.577 514.416 513.858 522.723 482.502L568.611 309.299ZM346.317 196.366L358.53 196.195C397.021 195.658 427.374 202.177 449.589 215.752C472.544 229.316 480 251.278 471.956 281.639L394.619 573.546L387.957 573.639C370.932 573.876 354.303 572.62 338.07 569.872C322.576 567.113 308.655 562.596 296.305 556.322C284.828 549.54 276.032 540.985 269.919 530.657C264.677 519.821 264.167 506.439 268.386 490.513L346.317 196.366ZM821.761 305.768C823.344 299.795 824.12 294.082 824.09 288.628C824.8 283.163 823.832 278.466 821.186 274.536C819.412 270.098 815.524 266.681 809.521 264.285C804.391 261.381 796.274 260.007 785.171 260.162C779.249 260.245 772.76 261.079 765.702 262.665C759.517 263.743 753.438 265.811 747.465 268.87C745.559 264.929 745.266 260.471 746.584 255.494C751.199 238.074 764.104 222.77 785.297 209.581C806.49 196.393 834.852 189.551 870.382 189.056C912.573 188.467 942.597 196.23 960.451 212.345C979.178 227.951 984.388 251.433 976.081 282.788L900.919 566.483L894.257 566.576C849.845 567.196 816.901 560.713 795.427 547.128C774.084 533.046 767.566 510.327 775.873 478.971L821.761 305.768Z" fill="#1E1E1E"/>
<path d="M1304.71 449.828C1297.8 475.723 1285.61 497.983 1268.11 516.609C1251.31 534.781 1229.11 548.637 1201.51 558.177C1174.49 567.717 1142.18 572.487 1104.6 572.487C1078.98 572.487 1054.92 570.897 1032.42 567.717C1009.92 564.537 987.748 559.086 965.892 551.363L993.687 447.102C1012.33 456.188 1032.26 463.684 1053.46 469.59C1075.35 475.041 1095.69 477.767 1114.48 477.767C1127.58 477.767 1137.4 476.177 1143.94 472.997C1151.17 469.363 1155.76 463.911 1157.69 456.643C1158.9 452.1 1158 448.011 1154.98 444.377C1152.66 440.288 1146.81 435.518 1137.45 430.067C1128.08 424.615 1113.45 417.573 1093.54 408.942C1075.79 400.765 1061.48 391.452 1050.6 381.003C1040.41 370.1 1033.83 357.38 1030.88 342.842C1027.92 328.305 1028.92 311.723 1033.89 293.097C1043.34 257.663 1064.84 230.405 1098.4 211.325C1132.64 191.79 1175.1 182.023 1225.78 182.023C1251.97 182.023 1275.73 184.749 1297.05 190.2C1318.38 195.652 1339.6 203.602 1360.73 214.05L1302.51 297.867C1293.15 292.416 1283.03 287.646 1272.17 283.557C1261.3 279.469 1250.47 276.288 1239.69 274.017C1229.03 271.291 1218.86 269.928 1209.18 269.928C1200.07 269.928 1192.87 271.291 1187.59 274.017C1182.88 276.743 1179.73 281.059 1178.16 286.964C1176.95 291.507 1177.34 295.369 1179.34 298.549C1181.34 301.729 1186.8 305.818 1195.72 310.815C1204.63 315.812 1218.41 322.853 1237.06 331.939C1255.83 340.571 1270.93 350.111 1282.38 360.56C1294.4 371.008 1302.46 383.502 1306.56 398.039C1310.77 412.122 1310.16 429.385 1304.71 449.828Z" stroke="#C9D4DA" stroke-width="110" mask="url(#path-1-outside-1_216_65)"/>
<path d="M1582.38 374.824C1603.38 374.483 1623.5 376.057 1642.72 379.545C1662.08 382.557 1678.23 387.758 1691.18 395.148C1704.14 402.539 1713.44 412.364 1719.11 424.623C1725.66 436.393 1726.62 450.866 1722.01 468.042L1693.54 573.964C1674.79 574.268 1656.18 572.67 1637.7 569.169C1619.35 565.191 1602.95 559.519 1588.5 552.153C1574.8 544.775 1564.17 535.684 1556.62 524.88C1549.94 513.588 1548.53 500.785 1552.38 486.471L1582.38 374.824ZM1661.09 159.693C1670.84 159.535 1684.02 160.509 1700.63 162.614C1717.37 164.243 1732.78 168.031 1746.87 173.978C1761.71 179.913 1773.65 188.27 1782.7 199.049C1791.76 209.828 1793.91 224.044 1789.17 241.698C1786.09 253.149 1780.89 264.159 1773.57 274.729C1767 285.286 1758.5 294.688 1748.07 302.933C1737.76 310.701 1724.84 317.086 1709.31 322.088C1694.53 327.078 1677.76 329.726 1659 330.03C1628.25 330.529 1607.35 324.93 1596.3 313.233C1586.13 301.047 1583.23 286.843 1587.59 270.621L1589.7 262.748C1592.06 265.085 1593.8 266.957 1594.92 268.364C1596.91 269.282 1600.91 269.692 1606.91 269.595C1617.41 269.424 1624.99 266.214 1629.66 259.962C1634.46 253.234 1638.59 243.428 1642.05 230.546L1661.09 159.693ZM1472.21 55.2451L1484.59 55.0443C1523.59 54.4114 1554.43 60.5617 1577.09 73.4952C1600.51 86.4165 1608.3 107.429 1600.48 136.534L1483.36 572.386C1480.36 572.435 1477.73 572.477 1475.48 572.514C1473.1 573.027 1470.41 573.308 1467.41 573.357C1450.91 573.625 1434.79 572.461 1419.06 569.866C1404.08 567.259 1391.1 562.719 1380.15 556.246C1369.19 549.773 1361 541.356 1355.57 530.993C1351.01 520.141 1350.85 506.842 1355.09 491.097L1472.21 55.2451Z" stroke="#C9D4DA" stroke-width="110" mask="url(#path-1-outside-1_216_65)"/>
<path d="M568.611 309.299C570.193 303.326 570.97 297.613 570.94 292.159C571.65 286.694 570.682 281.997 568.036 278.067C566.262 273.629 562.374 270.212 556.371 267.816C551.241 264.913 543.124 263.538 532.021 263.693C526.099 263.776 519.61 264.61 512.552 266.196C506.367 267.274 500.288 269.342 494.315 272.401C492.886 269.446 492.131 266.729 492.05 264.251C492.841 261.264 493.566 258.527 494.225 256.038L496.005 249.319C500.225 233.393 514.082 220.059 537.577 209.318C561.072 198.577 589.474 192.974 622.783 192.509C662.754 191.952 691.297 199.735 708.412 215.86C726.398 231.477 731.238 254.964 722.93 286.32L647.769 570.015L641.107 570.108C596.695 570.727 563.751 564.244 542.277 550.659C520.934 536.577 514.416 513.858 522.723 482.502L568.611 309.299ZM346.317 196.366L358.53 196.195C397.021 195.658 427.374 202.177 449.589 215.752C472.544 229.316 480 251.278 471.956 281.639L394.619 573.546L387.957 573.639C370.932 573.876 354.303 572.62 338.07 569.872C322.576 567.113 308.655 562.596 296.305 556.322C284.828 549.54 276.032 540.985 269.919 530.657C264.677 519.821 264.167 506.439 268.386 490.513L346.317 196.366ZM821.761 305.768C823.344 299.795 824.12 294.082 824.09 288.628C824.8 283.163 823.832 278.466 821.186 274.536C819.412 270.098 815.524 266.681 809.521 264.285C804.391 261.381 796.274 260.007 785.171 260.162C779.249 260.245 772.76 261.079 765.702 262.665C759.517 263.743 753.438 265.811 747.465 268.87C745.559 264.929 745.266 260.471 746.584 255.494C751.199 238.074 764.104 222.77 785.297 209.581C806.49 196.393 834.852 189.551 870.382 189.056C912.573 188.467 942.597 196.23 960.451 212.345C979.178 227.951 984.388 251.433 976.081 282.788L900.919 566.483L894.257 566.576C849.845 567.196 816.901 560.713 795.427 547.128C774.084 533.046 767.566 510.327 775.873 478.971L821.761 305.768Z" stroke="#C9D4DA" stroke-width="110" mask="url(#path-1-outside-1_216_65)"/>
<path d="M1553.27 381.997C1567.04 381.053 1577.44 369.121 1576.5 355.346C1575.55 341.571 1563.62 331.17 1549.85 332.114L1553.27 381.997ZM157.057 477.694L1553.27 381.997L1549.85 332.114L153.638 427.811L157.057 477.694Z" fill="#C9D4DA"/>
<path d="M10.5844 466.474C7.51576 465.841 7.04073 461.722 9.91179 460.642L82.716 433.26C83.5434 432.949 84.1808 432.3 84.4656 431.479L106.194 368.866C107.036 366.437 110.441 366.182 111.824 368.443L147.307 426.435C147.88 427.371 148.904 427.961 150.004 427.99L368.427 433.588C372.184 433.684 372.795 438.981 369.124 439.636L155.735 477.688C154.66 477.88 153.788 478.613 153.44 479.618L131.826 541.902C130.983 544.33 127.579 544.586 126.196 542.325L90.5247 484.025C90.0573 483.261 89.2825 482.719 88.3982 482.536L10.5844 466.474Z" fill="#C9D4DA"/>
<path d="M44.0857 463.932C41.017 463.299 40.5419 459.18 43.4129 458.1L92.7301 439.55C93.5575 439.239 94.1949 438.59 94.4796 437.77L109.4 394.769C110.243 392.34 113.647 392.084 115.031 394.346L139.341 434.075C139.914 435.012 140.939 435.602 142.039 435.63L290.332 439.428C294.09 439.524 294.701 444.822 291.03 445.476L146.154 471.314C145.08 471.506 144.208 472.239 143.859 473.244L129.053 515.915C128.21 518.343 124.806 518.599 123.422 516.338L98.9239 476.301C98.4564 475.537 97.6816 474.994 96.7973 474.812L44.0857 463.932Z" fill="#1E1E1E"/>
</svg>
