<svg width="1858" height="634" viewBox="0 0 1858 634" fill="none" xmlns="http://www.w3.org/2000/svg">
<mask id="path-1-outside-1_216_139" maskUnits="userSpaceOnUse" x="369" y="0" width="1304" height="627" fill="black">
<rect fill="white" x="369" width="1304" height="627"/>
<path d="M1508.23 156.307C1516.13 156.146 1526.95 157.135 1540.69 159.273C1554.49 160.927 1567.48 164.773 1579.66 170.812C1592.46 176.838 1603.22 185.324 1611.94 196.269C1620.66 207.215 1624.23 221.65 1622.63 239.576C1621.6 251.203 1618.78 262.384 1614.19 273.116C1610.21 283.837 1604.51 293.383 1597.1 301.755C1589.73 309.642 1580.06 316.126 1568.1 321.206C1556.74 326.273 1543.47 328.961 1528.29 329.27C1503.4 329.777 1485.73 324.091 1475.27 312.214C1465.46 299.84 1461.29 285.417 1462.76 268.945L1463.47 260.951C1465.68 263.324 1467.33 265.225 1468.42 266.653C1470.15 267.585 1473.45 268.002 1478.3 267.903C1486.8 267.73 1492.55 264.47 1495.54 258.122C1498.57 251.29 1500.67 241.333 1501.83 228.252L1508.23 156.307Z"/>
<path d="M1341.64 50.2489L1351.66 50.045C1383.23 49.4023 1409.03 55.6475 1429.07 68.7803C1449.72 81.9008 1458.73 103.238 1456.1 132.791L1437.73 339.244L1314.78 352.015L1341.64 50.2489Z"/>
<path d="M1227.44 361.088C1227.16 360.814 1226.88 360.541 1226.6 360.27C1215.97 349.66 1202.49 339.973 1186.16 331.209C1169.87 321.983 1157.79 314.833 1149.92 309.758C1142.05 304.684 1137.1 300.532 1135.07 297.303C1133.04 294.074 1132.23 290.153 1132.63 285.54C1133.15 279.543 1135.15 275.161 1138.63 272.393C1142.57 269.626 1148.23 268.242 1155.62 268.242C1163.48 268.242 1171.9 269.626 1180.9 272.393C1189.94 274.7 1199.13 277.929 1208.47 282.081C1217.81 286.232 1226.63 291.076 1234.92 296.611L1271.46 211.502C1252.98 200.892 1234.74 192.82 1216.75 187.284C1198.75 181.749 1179.12 178.981 1157.87 178.981C1116.75 178.981 1083.54 188.899 1058.25 208.735C1033.46 228.109 1019.49 255.787 1016.35 291.768C1014.7 310.681 1016 327.518 1020.26 342.28C1024.44 356.802 1031.25 369.539 1040.66 380.489L1227.44 361.088Z"/>
<path d="M958.868 388.986L968.125 281.3C970.862 249.461 963.637 225.618 946.449 209.77C929.904 193.407 904.551 185.525 870.391 186.122C841.625 186.625 819.486 193.573 803.973 206.964C788.46 220.356 779.944 235.896 778.423 253.584C777.988 258.638 778.796 263.166 780.846 267.167C785.301 264.061 789.97 261.961 794.851 260.866C800.375 259.256 805.534 258.409 810.329 258.325C819.318 258.167 826.08 259.563 830.613 262.511C835.79 264.944 839.381 268.414 841.387 272.92C844.036 276.911 845.421 281.68 845.543 287.229C846.264 292.767 846.363 298.569 845.842 304.633L837.507 401.592L958.868 388.986Z"/>
<path d="M752.373 410.435L763.166 284.886C765.903 253.046 758.977 229.198 742.388 213.34C726.443 196.967 702.289 189.063 669.927 189.629C642.958 190.101 620.628 195.79 602.935 206.697C585.243 217.603 575.701 231.143 574.311 247.315L573.007 262.476C573.389 264.993 574.349 267.752 575.886 270.752C580.342 267.647 585.011 265.547 589.892 264.452C595.416 262.841 600.575 261.994 605.369 261.91C614.359 261.753 621.12 263.149 625.654 266.097C630.83 268.53 634.422 271.999 636.428 276.506C639.077 280.496 640.462 285.266 640.583 290.815C641.304 296.353 641.404 302.154 640.882 308.219L631.011 423.042L752.373 410.435Z"/>
<path d="M545.878 431.885L558.923 280.132C561.573 249.304 552.719 227.003 532.361 213.23C512.602 199.446 487.141 192.827 455.978 193.372L446.089 193.545L424.516 444.491L545.878 431.885Z"/>
<path d="M420.467 491.591L420.413 492.226C419.022 508.398 421.145 521.985 426.782 532.989C433.061 543.476 441.29 552.163 451.469 559.049C462.291 565.42 474.164 570.006 487.088 572.808C500.611 575.599 514.264 576.874 528.048 576.633L533.442 576.539L541.821 479.073L420.467 491.591Z"/>
<path d="M626.949 470.292L625.763 484.091C623.026 515.931 631.215 539 650.332 553.3C669.491 567.094 697.05 573.676 733.008 573.047L738.401 572.953L748.303 457.774L626.949 470.292Z"/>
<path d="M833.432 448.992L830.722 480.506C827.985 512.345 836.175 535.414 855.291 549.714C874.451 563.508 902.009 570.091 937.967 569.462L943.361 569.368L954.785 436.474L833.432 448.992Z"/>
<path d="M1101.99 421.29C1108.41 424.883 1113.7 428.069 1117.87 430.848C1126.16 436.383 1131.51 441.227 1133.92 445.378C1136.83 449.069 1138.09 453.22 1137.69 457.833C1137.04 465.214 1134.02 470.75 1128.61 474.44C1123.71 477.669 1115.95 479.284 1105.32 479.284C1090.07 479.284 1073.22 476.516 1054.76 470.98C1036.8 464.984 1019.68 457.372 1003.39 448.146L994.15 554.014C1012.87 561.856 1031.56 567.391 1050.22 570.62C1068.88 573.849 1088.61 575.464 1109.4 575.464C1139.89 575.464 1165.5 570.62 1186.21 560.933C1207.38 551.246 1223.63 537.176 1234.94 518.724C1246.76 499.811 1253.81 477.208 1256.11 450.914C1257.62 433.587 1256.68 418.509 1253.29 405.682L1101.99 421.29Z"/>
<path d="M1310.53 399.777L1302.25 492.819C1300.83 508.807 1302.66 522.31 1307.74 533.33C1313.47 543.852 1321.19 552.4 1330.91 558.973C1340.63 565.545 1351.73 570.155 1364.22 572.802C1377.32 575.437 1390.54 576.619 1403.9 576.347C1406.33 576.298 1408.48 576.012 1410.34 575.491L1416.71 575.361L1433.47 387.096L1310.53 399.777Z"/>
<path d="M1471.08 383.216L1461.75 488.121C1460.45 502.656 1463.24 515.656 1470.09 527.123C1477.6 538.093 1487.38 547.324 1499.44 554.816C1512.11 562.296 1526.14 568.056 1541.54 572.095C1556.98 575.649 1572.29 577.272 1587.46 576.963L1597.04 469.409C1598.59 451.968 1595.96 437.271 1589.14 425.32C1582.98 412.872 1574.17 402.896 1562.72 395.391C1551.27 387.887 1537.5 382.605 1521.41 379.548C1519.78 379.189 1518.15 378.849 1516.51 378.53L1471.08 383.216Z"/>
</mask>
<path d="M1508.23 156.307C1516.13 156.146 1526.95 157.135 1540.69 159.273C1554.49 160.927 1567.48 164.773 1579.66 170.812C1592.46 176.838 1603.22 185.324 1611.94 196.269C1620.66 207.215 1624.23 221.65 1622.63 239.576C1621.6 251.203 1618.78 262.384 1614.19 273.116C1610.21 283.837 1604.51 293.383 1597.1 301.755C1589.73 309.642 1580.06 316.126 1568.1 321.206C1556.74 326.273 1543.47 328.961 1528.29 329.27C1503.4 329.777 1485.73 324.091 1475.27 312.214C1465.46 299.84 1461.29 285.417 1462.76 268.945L1463.47 260.951C1465.68 263.324 1467.33 265.225 1468.42 266.653C1470.15 267.585 1473.45 268.002 1478.3 267.903C1486.8 267.73 1492.55 264.47 1495.54 258.122C1498.57 251.29 1500.67 241.333 1501.83 228.252L1508.23 156.307Z" fill="#1E1E1E"/>
<path d="M1341.64 50.2489L1351.66 50.045C1383.23 49.4023 1409.03 55.6475 1429.07 68.7803C1449.72 81.9008 1458.73 103.238 1456.1 132.791L1437.73 339.244L1314.78 352.015L1341.64 50.2489Z" fill="#1E1E1E"/>
<path d="M1227.44 361.088C1227.16 360.814 1226.88 360.541 1226.6 360.27C1215.97 349.66 1202.49 339.973 1186.16 331.209C1169.87 321.983 1157.79 314.833 1149.92 309.758C1142.05 304.684 1137.1 300.532 1135.07 297.303C1133.04 294.074 1132.23 290.153 1132.63 285.54C1133.15 279.543 1135.15 275.161 1138.63 272.393C1142.57 269.626 1148.23 268.242 1155.62 268.242C1163.48 268.242 1171.9 269.626 1180.9 272.393C1189.94 274.7 1199.13 277.929 1208.47 282.081C1217.81 286.232 1226.63 291.076 1234.92 296.611L1271.46 211.502C1252.98 200.892 1234.74 192.82 1216.75 187.284C1198.75 181.749 1179.12 178.981 1157.87 178.981C1116.75 178.981 1083.54 188.899 1058.25 208.735C1033.46 228.109 1019.49 255.787 1016.35 291.768C1014.7 310.681 1016 327.518 1020.26 342.28C1024.44 356.802 1031.25 369.539 1040.66 380.489L1227.44 361.088Z" fill="#1E1E1E"/>
<path d="M958.868 388.986L968.125 281.3C970.862 249.461 963.637 225.618 946.449 209.77C929.904 193.407 904.551 185.525 870.391 186.122C841.625 186.625 819.486 193.573 803.973 206.964C788.46 220.356 779.944 235.896 778.423 253.584C777.988 258.638 778.796 263.166 780.846 267.167C785.301 264.061 789.97 261.961 794.851 260.866C800.375 259.256 805.534 258.409 810.329 258.325C819.318 258.167 826.08 259.563 830.613 262.511C835.79 264.944 839.381 268.414 841.387 272.92C844.036 276.911 845.421 281.68 845.543 287.229C846.264 292.767 846.363 298.569 845.842 304.633L837.507 401.592L958.868 388.986Z" fill="#1E1E1E"/>
<path d="M752.373 410.435L763.166 284.886C765.903 253.046 758.977 229.198 742.388 213.34C726.443 196.967 702.289 189.063 669.927 189.629C642.958 190.101 620.628 195.79 602.935 206.697C585.243 217.603 575.701 231.143 574.311 247.315L573.007 262.476C573.389 264.993 574.349 267.752 575.886 270.752C580.342 267.647 585.011 265.547 589.892 264.452C595.416 262.841 600.575 261.994 605.369 261.91C614.359 261.753 621.12 263.149 625.654 266.097C630.83 268.53 634.422 271.999 636.428 276.506C639.077 280.496 640.462 285.266 640.583 290.815C641.304 296.353 641.404 302.154 640.882 308.219L631.011 423.042L752.373 410.435Z" fill="#1E1E1E"/>
<path d="M545.878 431.885L558.923 280.132C561.573 249.304 552.719 227.003 532.361 213.23C512.602 199.446 487.141 192.827 455.978 193.372L446.089 193.545L424.516 444.491L545.878 431.885Z" fill="#1E1E1E"/>
<path d="M420.467 491.591L420.413 492.226C419.022 508.398 421.145 521.985 426.782 532.989C433.061 543.476 441.29 552.163 451.469 559.049C462.291 565.42 474.164 570.006 487.088 572.808C500.611 575.599 514.264 576.874 528.048 576.633L533.442 576.539L541.821 479.073L420.467 491.591Z" fill="#1E1E1E"/>
<path d="M626.949 470.292L625.763 484.091C623.026 515.931 631.215 539 650.332 553.3C669.491 567.094 697.05 573.676 733.008 573.047L738.401 572.953L748.303 457.774L626.949 470.292Z" fill="#1E1E1E"/>
<path d="M833.432 448.992L830.722 480.506C827.985 512.345 836.175 535.414 855.291 549.714C874.451 563.508 902.009 570.091 937.967 569.462L943.361 569.368L954.785 436.474L833.432 448.992Z" fill="#1E1E1E"/>
<path d="M1101.99 421.29C1108.41 424.883 1113.7 428.069 1117.87 430.848C1126.16 436.383 1131.51 441.227 1133.92 445.378C1136.83 449.069 1138.09 453.22 1137.69 457.833C1137.04 465.214 1134.02 470.75 1128.61 474.44C1123.71 477.669 1115.95 479.284 1105.32 479.284C1090.07 479.284 1073.22 476.516 1054.76 470.98C1036.8 464.984 1019.68 457.372 1003.39 448.146L994.15 554.014C1012.87 561.856 1031.56 567.391 1050.22 570.62C1068.88 573.849 1088.61 575.464 1109.4 575.464C1139.89 575.464 1165.5 570.62 1186.21 560.933C1207.38 551.246 1223.63 537.176 1234.94 518.724C1246.76 499.811 1253.81 477.208 1256.11 450.914C1257.62 433.587 1256.68 418.509 1253.29 405.682L1101.99 421.29Z" fill="#1E1E1E"/>
<path d="M1310.53 399.777L1302.25 492.819C1300.83 508.807 1302.66 522.31 1307.74 533.33C1313.47 543.852 1321.19 552.4 1330.91 558.973C1340.63 565.545 1351.73 570.155 1364.22 572.802C1377.32 575.437 1390.54 576.619 1403.9 576.347C1406.33 576.298 1408.48 576.012 1410.34 575.491L1416.71 575.361L1433.47 387.096L1310.53 399.777Z" fill="#1E1E1E"/>
<path d="M1471.08 383.216L1461.75 488.121C1460.45 502.656 1463.24 515.656 1470.09 527.123C1477.6 538.093 1487.38 547.324 1499.44 554.816C1512.11 562.296 1526.14 568.056 1541.54 572.095C1556.98 575.649 1572.29 577.272 1587.46 576.963L1597.04 469.409C1598.59 451.968 1595.96 437.271 1589.14 425.32C1582.98 412.872 1574.17 402.896 1562.72 395.391C1551.27 387.887 1537.5 382.605 1521.41 379.548C1519.78 379.189 1518.15 378.849 1516.51 378.53L1471.08 383.216Z" fill="#1E1E1E"/>
<path d="M1508.23 156.307C1516.13 156.146 1526.95 157.135 1540.69 159.273C1554.49 160.927 1567.48 164.773 1579.66 170.812C1592.46 176.838 1603.22 185.324 1611.94 196.269C1620.66 207.215 1624.23 221.65 1622.63 239.576C1621.6 251.203 1618.78 262.384 1614.19 273.116C1610.21 283.837 1604.51 293.383 1597.1 301.755C1589.73 309.642 1580.06 316.126 1568.1 321.206C1556.74 326.273 1543.47 328.961 1528.29 329.27C1503.4 329.777 1485.73 324.091 1475.27 312.214C1465.46 299.84 1461.29 285.417 1462.76 268.945L1463.47 260.951C1465.68 263.324 1467.33 265.225 1468.42 266.653C1470.15 267.585 1473.45 268.002 1478.3 267.903C1486.8 267.73 1492.55 264.47 1495.54 258.122C1498.57 251.29 1500.67 241.333 1501.83 228.252L1508.23 156.307Z" stroke="#C9D4DA" stroke-width="100" mask="url(#path-1-outside-1_216_139)"/>
<path d="M1341.64 50.2489L1351.66 50.045C1383.23 49.4023 1409.03 55.6475 1429.07 68.7803C1449.72 81.9008 1458.73 103.238 1456.1 132.791L1437.73 339.244L1314.78 352.015L1341.64 50.2489Z" stroke="#C9D4DA" stroke-width="100" mask="url(#path-1-outside-1_216_139)"/>
<path d="M1227.44 361.088C1227.16 360.814 1226.88 360.541 1226.6 360.27C1215.97 349.66 1202.49 339.973 1186.16 331.209C1169.87 321.983 1157.79 314.833 1149.92 309.758C1142.05 304.684 1137.1 300.532 1135.07 297.303C1133.04 294.074 1132.23 290.153 1132.63 285.54C1133.15 279.543 1135.15 275.161 1138.63 272.393C1142.57 269.626 1148.23 268.242 1155.62 268.242C1163.48 268.242 1171.9 269.626 1180.9 272.393C1189.94 274.7 1199.13 277.929 1208.47 282.081C1217.81 286.232 1226.63 291.076 1234.92 296.611L1271.46 211.502C1252.98 200.892 1234.74 192.82 1216.75 187.284C1198.75 181.749 1179.12 178.981 1157.87 178.981C1116.75 178.981 1083.54 188.899 1058.25 208.735C1033.46 228.109 1019.49 255.787 1016.35 291.768C1014.7 310.681 1016 327.518 1020.26 342.28C1024.44 356.802 1031.25 369.539 1040.66 380.489L1227.44 361.088Z" stroke="#C9D4DA" stroke-width="100" mask="url(#path-1-outside-1_216_139)"/>
<path d="M958.868 388.986L968.125 281.3C970.862 249.461 963.637 225.618 946.449 209.77C929.904 193.407 904.551 185.525 870.391 186.122C841.625 186.625 819.486 193.573 803.973 206.964C788.46 220.356 779.944 235.896 778.423 253.584C777.988 258.638 778.796 263.166 780.846 267.167C785.301 264.061 789.97 261.961 794.851 260.866C800.375 259.256 805.534 258.409 810.329 258.325C819.318 258.167 826.08 259.563 830.613 262.511C835.79 264.944 839.381 268.414 841.387 272.92C844.036 276.911 845.421 281.68 845.543 287.229C846.264 292.767 846.363 298.569 845.842 304.633L837.507 401.592L958.868 388.986Z" stroke="#C9D4DA" stroke-width="100" mask="url(#path-1-outside-1_216_139)"/>
<path d="M752.373 410.435L763.166 284.886C765.903 253.046 758.977 229.198 742.388 213.34C726.443 196.967 702.289 189.063 669.927 189.629C642.958 190.101 620.628 195.79 602.935 206.697C585.243 217.603 575.701 231.143 574.311 247.315L573.007 262.476C573.389 264.993 574.349 267.752 575.886 270.752C580.342 267.647 585.011 265.547 589.892 264.452C595.416 262.841 600.575 261.994 605.369 261.91C614.359 261.753 621.12 263.149 625.654 266.097C630.83 268.53 634.422 271.999 636.428 276.506C639.077 280.496 640.462 285.266 640.583 290.815C641.304 296.353 641.404 302.154 640.882 308.219L631.011 423.042L752.373 410.435Z" stroke="#C9D4DA" stroke-width="100" mask="url(#path-1-outside-1_216_139)"/>
<path d="M545.878 431.885L558.923 280.132C561.573 249.304 552.719 227.003 532.361 213.23C512.602 199.446 487.141 192.827 455.978 193.372L446.089 193.545L424.516 444.491L545.878 431.885Z" stroke="#C9D4DA" stroke-width="100" mask="url(#path-1-outside-1_216_139)"/>
<path d="M420.467 491.591L420.413 492.226C419.022 508.398 421.145 521.985 426.782 532.989C433.061 543.476 441.29 552.163 451.469 559.049C462.291 565.42 474.164 570.006 487.088 572.808C500.611 575.599 514.264 576.874 528.048 576.633L533.442 576.539L541.821 479.073L420.467 491.591Z" stroke="#C9D4DA" stroke-width="100" mask="url(#path-1-outside-1_216_139)"/>
<path d="M626.949 470.292L625.763 484.091C623.026 515.931 631.215 539 650.332 553.3C669.491 567.094 697.05 573.676 733.008 573.047L738.401 572.953L748.303 457.774L626.949 470.292Z" stroke="#C9D4DA" stroke-width="100" mask="url(#path-1-outside-1_216_139)"/>
<path d="M833.432 448.992L830.722 480.506C827.985 512.345 836.175 535.414 855.291 549.714C874.451 563.508 902.009 570.091 937.967 569.462L943.361 569.368L954.785 436.474L833.432 448.992Z" stroke="#C9D4DA" stroke-width="100" mask="url(#path-1-outside-1_216_139)"/>
<path d="M1101.99 421.29C1108.41 424.883 1113.7 428.069 1117.87 430.848C1126.16 436.383 1131.51 441.227 1133.92 445.378C1136.83 449.069 1138.09 453.22 1137.69 457.833C1137.04 465.214 1134.02 470.75 1128.61 474.44C1123.71 477.669 1115.95 479.284 1105.32 479.284C1090.07 479.284 1073.22 476.516 1054.76 470.98C1036.8 464.984 1019.68 457.372 1003.39 448.146L994.15 554.014C1012.87 561.856 1031.56 567.391 1050.22 570.62C1068.88 573.849 1088.61 575.464 1109.4 575.464C1139.89 575.464 1165.5 570.62 1186.21 560.933C1207.38 551.246 1223.63 537.176 1234.94 518.724C1246.76 499.811 1253.81 477.208 1256.11 450.914C1257.62 433.587 1256.68 418.509 1253.29 405.682L1101.99 421.29Z" stroke="#C9D4DA" stroke-width="100" mask="url(#path-1-outside-1_216_139)"/>
<path d="M1310.53 399.777L1302.25 492.819C1300.83 508.807 1302.66 522.31 1307.74 533.33C1313.47 543.852 1321.19 552.4 1330.91 558.973C1340.63 565.545 1351.73 570.155 1364.22 572.802C1377.32 575.437 1390.54 576.619 1403.9 576.347C1406.33 576.298 1408.48 576.012 1410.34 575.491L1416.71 575.361L1433.47 387.096L1310.53 399.777Z" stroke="#C9D4DA" stroke-width="100" mask="url(#path-1-outside-1_216_139)"/>
<path d="M1471.08 383.216L1461.75 488.121C1460.45 502.656 1463.24 515.656 1470.09 527.123C1477.6 538.093 1487.38 547.324 1499.44 554.816C1512.11 562.296 1526.14 568.056 1541.54 572.095C1556.98 575.649 1572.29 577.272 1587.46 576.963L1597.04 469.409C1598.59 451.968 1595.96 437.271 1589.14 425.32C1582.98 412.872 1574.17 402.896 1562.72 395.391C1551.27 387.887 1537.5 382.605 1521.41 379.548C1519.78 379.189 1518.15 378.849 1516.51 378.53L1471.08 383.216Z" stroke="#C9D4DA" stroke-width="100" mask="url(#path-1-outside-1_216_139)"/>
<path d="M1545.84 351.755L1543.32 326.882L1543.27 326.887L1543.23 326.892L1545.84 351.755ZM1673 226C1673 212.193 1661.81 201 1648 201C1634.19 201 1623 212.193 1623 226H1673ZM299.613 507.863L1548.45 376.618L1543.23 326.892L294.387 458.137L299.613 507.863ZM1548.36 376.628C1601.36 371.261 1633.81 344.03 1651.96 311.821C1669.34 280.998 1673 246.99 1673 226H1623C1623 242.437 1619.94 266.815 1608.41 287.268C1597.66 306.334 1579.03 323.267 1543.32 326.882L1548.36 376.628Z" fill="#C9D4DA"/>
<path d="M194.345 499.862C191.596 499.25 191.135 495.547 193.651 494.284L250.004 465.979C250.786 465.586 251.356 464.873 251.566 464.028L266.391 404.273C267.051 401.612 270.664 401.165 271.956 403.584L300.778 457.544C301.298 458.518 302.315 459.126 303.423 459.128L475.002 459.319C478.533 459.323 479.156 464.334 475.733 465.198L309.405 507.199C308.33 507.47 307.493 508.309 307.227 509.379L292.503 568.727C291.843 571.388 288.231 571.835 286.939 569.416L257.919 515.086C257.508 514.317 256.78 513.765 255.926 513.575L194.345 499.862Z" fill="#C9D4DA"/>
<path d="M213.143 498.131C210.394 497.519 209.933 493.816 212.449 492.553L255.788 470.784C256.57 470.391 257.141 469.679 257.351 468.833L268.768 422.812C269.428 420.152 273.041 419.705 274.333 422.124L296.485 463.596C297.005 464.57 298.022 465.179 299.13 465.18L431.252 465.327C434.782 465.331 435.406 470.342 431.983 471.206L303.904 503.549C302.83 503.82 301.993 504.658 301.727 505.729L290.411 551.342C289.751 554.003 286.138 554.45 284.846 552.031L262.496 510.189C262.086 509.419 261.358 508.867 260.503 508.677L213.143 498.131Z" fill="#1E1E1E"/>
</svg>
