<svg xmlns="http://www.w3.org/2000/svg" width="256" height="256" fill="none">
  <rect width="256" height="256" fill="#1E1E1E" rx="13"/>
  <mask id="a" width="222.729" height="100.195" x="26.535" y="72.064" fill="#000" maskUnits="userSpaceOnUse">
    <path fill="#fff" d="M26.535 72.064h222.729v100.195H26.535z"/>
    <path d="M172.792 143.91c-.902 4.191-2.496 7.794-4.782 10.809-2.195 2.942-5.096 5.185-8.703 6.729-3.532 1.544-7.753 2.316-12.664 2.316-3.349 0-6.493-.257-9.433-.772a37.121 37.121 0 0 1-6.094-1.615c-1.575-.562-2.349-2.2-1.978-3.921l1.688-7.845c.619-2.876 4.017-4.55 6.582-3.475.834.349 1.684.673 2.551.972 2.861.883 5.519 1.324 7.975 1.324 1.711 0 2.994-.257 3.849-.772.945-.588 1.544-1.471 1.798-2.647.138-.642.065-1.227-.217-1.756a10.129 10.129 0 0 0-.263-.466c-.363-.608-1.085-1.301-2.166-2.08-1.224-.882-3.137-2.022-5.738-3.419-2.319-1.324-4.19-2.832-5.612-4.523-1.331-1.765-2.19-3.824-2.577-6.177-.386-2.353-.255-5.037.394-8.052 1.235-5.736 4.044-10.148 8.43-13.236 4.475-3.162 10.024-4.743 16.646-4.743 3.423 0 6.528.441 9.314 1.323a35.801 35.801 0 0 1 5.374 2.212c1.722.873 2.163 3.048 1.124 4.901l-3.332 5.942c-1.276 2.276-4.209 3.093-6.362 2.083l-.056-.026a24.904 24.904 0 0 0-4.244-1.544c-1.393-.442-2.722-.662-3.987-.662-1.191 0-2.131.22-2.821.662-.616.441-1.027 1.139-1.233 2.095-.158.736-.107 1.361.155 1.876.261.514.974 1.176 2.139 1.985 1.166.809 2.967 1.949 5.403 3.419 2.453 1.398 4.427 2.942 5.923 4.633 1.571 1.691 2.624 3.714 3.159 6.067.551 2.279.47 5.074-.242 8.383ZM208.31 135.312c.437-2.017 2.324-3.601 4.337-3.435 1.475.122 2.914.341 4.317.656 2.53.488 4.641 1.33 6.333 2.526 1.692 1.196 2.909 2.786 3.65 4.771.855 1.905.981 4.248.378 7.028l-2.951 13.603c-.437 2.016-2.326 3.602-4.33 3.396a29.675 29.675 0 0 1-3.736-.63c-2.398-.644-4.541-1.562-6.43-2.754-1.79-1.195-3.179-2.666-4.166-4.415-.872-1.828-1.057-3.9-.554-6.217l3.152-14.529Zm10.285-34.823c.438-2.016 2.319-3.553 4.312-3.301.51.064 1.052.141 1.625.231 2.187.264 4.201.877 6.042 1.84 1.939.96 3.5 2.313 4.683 4.058 1.183 1.745 1.464 4.046.844 6.903a19.27 19.27 0 0 1-2.038 5.347 17.07 17.07 0 0 1-3.333 4.565c-1.346 1.258-3.034 2.291-5.064 3.101-1.932.808-4.124 1.236-6.574 1.285-4.019.081-6.751-.825-8.194-2.719-1.329-1.972-1.709-4.271-1.139-6.897l.039-.18c.092-.423.656-.581.878-.248.037.056.07.081.133.107.282.117.774.169 1.475.155 1.372-.028 2.363-.547 2.973-1.559.627-1.089 1.166-2.677 1.619-4.762l1.719-7.926Zm-24.259-18.855c.197-.907 1.043-1.608 1.963-1.627 5.097-.102 9.127.893 12.089 2.987 3.059 2.091 4.078 5.493 3.056 10.204l-15.113 69.661c-.11.506-.597.897-1.111.907a1.148 1.148 0 0 0-.238.034 4.653 4.653 0 0 1-.927.105 28.623 28.623 0 0 1-6.319-.565c-1.958-.422-3.653-1.157-5.085-2.205-1.432-1.047-2.503-2.41-3.212-4.087-.595-1.757-.616-3.91-.063-6.458l14.96-68.956ZM76.6 121.163c.206-.967.308-1.892.304-2.775.079-.756-.002-1.421-.243-1.996-.082-.194-.164-.39-.252-.581-.267-.576-.736-1.03-1.41-1.363-.67-.47-1.73-.693-3.181-.667-.774.013-1.622.148-2.544.405-.4.086-.798.212-1.192.377-.654.275-1.438.083-1.482-.578a.845.845 0 0 1 .023-.246l.256-1.197.232-1.088c.552-2.578 2.363-4.736 5.433-6.475 3.07-1.739 6.782-2.646 11.135-2.721 5.223-.09 8.953 1.17 11.19 3.78 2.35 2.528 2.982 6.33 1.897 11.405l-9.639 45.062c-.104.488-.56.865-1.054.874-5.804.1-10.109-.949-12.915-3.148-2.79-2.28-3.64-5.957-2.555-11.032l5.996-28.036Zm-29.387-16.706c.192-.895 1.026-1.586 1.933-1.602 5.03-.087 8.996.968 11.9 3.165 3 2.196 3.974 5.751 2.923 10.665l-9.923 46.392c-.105.488-.56.865-1.054.874a29.225 29.225 0 0 1-6.52-.61c-2.024-.447-3.844-1.178-5.458-2.193a10.895 10.895 0 0 1-3.448-4.155c-.685-1.754-.751-3.92-.2-6.498l9.847-46.038Zm62.468 16.134c.207-.967.308-1.892.304-2.774.08-.756-.001-1.422-.242-1.996-.082-.195-.164-.39-.253-.581-.266-.576-.735-1.031-1.409-1.364-.67-.47-1.731-.692-3.182-.667-.773.013-1.622.148-2.544.405-.08.018-.161.037-.241.057-1.188.305-2.509-.042-2.257-1.218.603-2.819 2.289-5.297 5.059-7.431 2.769-2.135 6.476-3.243 11.119-3.323 5.513-.095 9.437 1.162 11.77 3.77 2.447 2.526 3.128 6.327 2.042 11.402l-9.638 45.063c-.104.488-.56.865-1.054.873-5.804.101-10.109-.949-12.915-3.148-2.789-2.279-3.641-5.957-2.556-11.032l5.997-28.036Z"/>
  </mask>
  <path fill="#1E1E1E" d="M172.792 143.91c-.902 4.191-2.496 7.794-4.782 10.809-2.195 2.942-5.096 5.185-8.703 6.729-3.532 1.544-7.753 2.316-12.664 2.316-3.349 0-6.493-.257-9.433-.772a37.121 37.121 0 0 1-6.094-1.615c-1.575-.562-2.349-2.2-1.978-3.921l1.688-7.845c.619-2.876 4.017-4.55 6.582-3.475.834.349 1.684.673 2.551.972 2.861.883 5.519 1.324 7.975 1.324 1.711 0 2.994-.257 3.849-.772.945-.588 1.544-1.471 1.798-2.647.138-.642.065-1.227-.217-1.756a10.129 10.129 0 0 0-.263-.466c-.363-.608-1.085-1.301-2.166-2.08-1.224-.882-3.137-2.022-5.738-3.419-2.319-1.324-4.19-2.832-5.612-4.523-1.331-1.765-2.19-3.824-2.577-6.177-.386-2.353-.255-5.037.394-8.052 1.235-5.736 4.044-10.148 8.43-13.236 4.475-3.162 10.024-4.743 16.646-4.743 3.423 0 6.528.441 9.314 1.323a35.801 35.801 0 0 1 5.374 2.212c1.722.873 2.163 3.048 1.124 4.901l-3.332 5.942c-1.276 2.276-4.209 3.093-6.362 2.083l-.056-.026a24.904 24.904 0 0 0-4.244-1.544c-1.393-.442-2.722-.662-3.987-.662-1.191 0-2.131.22-2.821.662-.616.441-1.027 1.139-1.233 2.095-.158.736-.107 1.361.155 1.876.261.514.974 1.176 2.139 1.985 1.166.809 2.967 1.949 5.403 3.419 2.453 1.398 4.427 2.942 5.923 4.633 1.571 1.691 2.624 3.714 3.159 6.067.551 2.279.47 5.074-.242 8.383ZM208.31 135.312c.437-2.017 2.324-3.601 4.337-3.435 1.475.122 2.914.341 4.317.656 2.53.488 4.641 1.33 6.333 2.526 1.692 1.196 2.909 2.786 3.65 4.771.855 1.905.981 4.248.378 7.028l-2.951 13.603c-.437 2.016-2.326 3.602-4.33 3.396a29.675 29.675 0 0 1-3.736-.63c-2.398-.644-4.541-1.562-6.43-2.754-1.79-1.195-3.179-2.666-4.166-4.415-.872-1.828-1.057-3.9-.554-6.217l3.152-14.529Zm10.285-34.823c.438-2.016 2.319-3.553 4.312-3.301.51.064 1.052.141 1.625.231 2.187.264 4.201.877 6.042 1.84 1.939.96 3.5 2.313 4.683 4.058 1.183 1.745 1.464 4.046.844 6.903a19.27 19.27 0 0 1-2.038 5.347 17.07 17.07 0 0 1-3.333 4.565c-1.346 1.258-3.034 2.291-5.064 3.101-1.932.808-4.124 1.236-6.574 1.285-4.019.081-6.751-.825-8.194-2.719-1.329-1.972-1.709-4.271-1.139-6.897l.039-.18c.092-.423.656-.581.878-.248.037.056.07.081.133.107.282.117.774.169 1.475.155 1.372-.028 2.363-.547 2.973-1.559.627-1.089 1.166-2.677 1.619-4.762l1.719-7.926Zm-24.259-18.855c.197-.907 1.043-1.608 1.963-1.627 5.097-.102 9.127.893 12.089 2.987 3.059 2.091 4.078 5.493 3.056 10.204l-15.113 69.661c-.11.506-.597.897-1.111.907a1.148 1.148 0 0 0-.238.034 4.653 4.653 0 0 1-.927.105 28.623 28.623 0 0 1-6.319-.565c-1.958-.422-3.653-1.157-5.085-2.205-1.432-1.047-2.503-2.41-3.212-4.087-.595-1.757-.616-3.91-.063-6.458l14.96-68.956ZM76.6 121.163c.206-.967.308-1.892.304-2.775.079-.756-.002-1.421-.243-1.996-.082-.194-.164-.39-.252-.581-.267-.576-.736-1.03-1.41-1.363-.67-.47-1.73-.693-3.181-.667-.774.013-1.622.148-2.544.405-.4.086-.798.212-1.192.377-.654.275-1.438.083-1.482-.578a.845.845 0 0 1 .023-.246l.256-1.197.232-1.088c.552-2.578 2.363-4.736 5.433-6.475 3.07-1.739 6.782-2.646 11.135-2.721 5.223-.09 8.953 1.17 11.19 3.78 2.35 2.528 2.982 6.33 1.897 11.405l-9.639 45.062c-.104.488-.56.865-1.054.874-5.804.1-10.109-.949-12.915-3.148-2.79-2.28-3.64-5.957-2.555-11.032l5.996-28.036Zm-29.387-16.706c.192-.895 1.026-1.586 1.933-1.602 5.03-.087 8.996.968 11.9 3.165 3 2.196 3.974 5.751 2.923 10.665l-9.923 46.392c-.105.488-.56.865-1.054.874a29.225 29.225 0 0 1-6.52-.61c-2.024-.447-3.844-1.178-5.458-2.193a10.895 10.895 0 0 1-3.448-4.155c-.685-1.754-.751-3.92-.2-6.498l9.847-46.038Zm62.468 16.134c.207-.967.308-1.892.304-2.774.08-.756-.001-1.422-.242-1.996-.082-.195-.164-.39-.253-.581-.266-.576-.735-1.031-1.409-1.364-.67-.47-1.731-.692-3.182-.667-.773.013-1.622.148-2.544.405-.08.018-.161.037-.241.057-1.188.305-2.509-.042-2.257-1.218.603-2.819 2.289-5.297 5.059-7.431 2.769-2.135 6.476-3.243 11.119-3.323 5.513-.095 9.437 1.162 11.77 3.77 2.447 2.526 3.128 6.327 2.042 11.402l-9.638 45.063c-.104.488-.56.865-1.054.873-5.804.101-10.109-.949-12.915-3.148-2.789-2.279-3.641-5.957-2.556-11.032l5.997-28.036Z"/>
  <path stroke="#fff" stroke-width="16" d="M172.792 143.91c-.902 4.191-2.496 7.794-4.782 10.809-2.195 2.942-5.096 5.185-8.703 6.729-3.532 1.544-7.753 2.316-12.664 2.316-3.349 0-6.493-.257-9.433-.772a37.121 37.121 0 0 1-6.094-1.615c-1.575-.562-2.349-2.2-1.978-3.921l1.688-7.845c.619-2.876 4.017-4.55 6.582-3.475.834.349 1.684.673 2.551.972 2.861.883 5.519 1.324 7.975 1.324 1.711 0 2.994-.257 3.849-.772.945-.588 1.544-1.471 1.798-2.647.138-.642.065-1.227-.217-1.756a10.129 10.129 0 0 0-.263-.466c-.363-.608-1.085-1.301-2.166-2.08-1.224-.882-3.137-2.022-5.738-3.419-2.319-1.324-4.19-2.832-5.612-4.523-1.331-1.765-2.19-3.824-2.577-6.177-.386-2.353-.255-5.037.394-8.052 1.235-5.736 4.044-10.148 8.43-13.236 4.475-3.162 10.024-4.743 16.646-4.743 3.423 0 6.528.441 9.314 1.323a35.801 35.801 0 0 1 5.374 2.212c1.722.873 2.163 3.048 1.124 4.901l-3.332 5.942c-1.276 2.276-4.209 3.093-6.362 2.083l-.056-.026a24.904 24.904 0 0 0-4.244-1.544c-1.393-.442-2.722-.662-3.987-.662-1.191 0-2.131.22-2.821.662-.616.441-1.027 1.139-1.233 2.095-.158.736-.107 1.361.155 1.876.261.514.974 1.176 2.139 1.985 1.166.809 2.967 1.949 5.403 3.419 2.453 1.398 4.427 2.942 5.923 4.633 1.571 1.691 2.624 3.714 3.159 6.067.551 2.279.47 5.074-.242 8.383ZM208.31 135.312c.437-2.017 2.324-3.601 4.337-3.435 1.475.122 2.914.341 4.317.656 2.53.488 4.641 1.33 6.333 2.526 1.692 1.196 2.909 2.786 3.65 4.771.855 1.905.981 4.248.378 7.028l-2.951 13.603c-.437 2.016-2.326 3.602-4.33 3.396a29.675 29.675 0 0 1-3.736-.63c-2.398-.644-4.541-1.562-6.43-2.754-1.79-1.195-3.179-2.666-4.166-4.415-.872-1.828-1.057-3.9-.554-6.217l3.152-14.529Zm10.285-34.823c.438-2.016 2.319-3.553 4.312-3.301.51.064 1.052.141 1.625.231 2.187.264 4.201.877 6.042 1.84 1.939.96 3.5 2.313 4.683 4.058 1.183 1.745 1.464 4.046.844 6.903a19.27 19.27 0 0 1-2.038 5.347 17.07 17.07 0 0 1-3.333 4.565c-1.346 1.258-3.034 2.291-5.064 3.101-1.932.808-4.124 1.236-6.574 1.285-4.019.081-6.751-.825-8.194-2.719-1.329-1.972-1.709-4.271-1.139-6.897l.039-.18c.092-.423.656-.581.878-.248.037.056.07.081.133.107.282.117.774.169 1.475.155 1.372-.028 2.363-.547 2.973-1.559.627-1.089 1.166-2.677 1.619-4.762l1.719-7.926Zm-24.259-18.855c.197-.907 1.043-1.608 1.963-1.627 5.097-.102 9.127.893 12.089 2.987 3.059 2.091 4.078 5.493 3.056 10.204l-15.113 69.661c-.11.506-.597.897-1.111.907a1.148 1.148 0 0 0-.238.034 4.653 4.653 0 0 1-.927.105 28.623 28.623 0 0 1-6.319-.565c-1.958-.422-3.653-1.157-5.085-2.205-1.432-1.047-2.503-2.41-3.212-4.087-.595-1.757-.616-3.91-.063-6.458l14.96-68.956ZM76.6 121.163c.206-.967.308-1.892.304-2.775.079-.756-.002-1.421-.243-1.996-.082-.194-.164-.39-.252-.581-.267-.576-.736-1.03-1.41-1.363-.67-.47-1.73-.693-3.181-.667-.774.013-1.622.148-2.544.405-.4.086-.798.212-1.192.377-.654.275-1.438.083-1.482-.578a.845.845 0 0 1 .023-.246l.256-1.197.232-1.088c.552-2.578 2.363-4.736 5.433-6.475 3.07-1.739 6.782-2.646 11.135-2.721 5.223-.09 8.953 1.17 11.19 3.78 2.35 2.528 2.982 6.33 1.897 11.405l-9.639 45.062c-.104.488-.56.865-1.054.874-5.804.1-10.109-.949-12.915-3.148-2.79-2.28-3.64-5.957-2.555-11.032l5.996-28.036Zm-29.387-16.706c.192-.895 1.026-1.586 1.933-1.602 5.03-.087 8.996.968 11.9 3.165 3 2.196 3.974 5.751 2.923 10.665l-9.923 46.392c-.105.488-.56.865-1.054.874a29.225 29.225 0 0 1-6.52-.61c-2.024-.447-3.844-1.178-5.458-2.193a10.895 10.895 0 0 1-3.448-4.155c-.685-1.754-.751-3.92-.2-6.498l9.847-46.038Zm62.468 16.134c.207-.967.308-1.892.304-2.774.08-.756-.001-1.422-.242-1.996-.082-.195-.164-.39-.253-.581-.266-.576-.735-1.031-1.409-1.364-.67-.47-1.731-.692-3.182-.667-.773.013-1.622.148-2.544.405-.08.018-.161.037-.241.057-1.188.305-2.509-.042-2.257-1.218.603-2.819 2.289-5.297 5.059-7.431 2.769-2.135 6.476-3.243 11.119-3.323 5.513-.095 9.437 1.162 11.77 3.77 2.447 2.526 3.128 6.327 2.042 11.402l-9.638 45.063c-.104.488-.56.865-1.054.873-5.804.101-10.109-.949-12.915-3.148-2.789-2.279-3.641-5.957-2.556-11.032l5.997-28.036Z" mask="url(#a)"/>
  <path fill="#fff" d="M205.384 132.877a4 4 0 0 0-.667-7.972l.667 7.972ZM32.806 147.325l172.578-14.448-.667-7.972-172.579 14.447.668 7.973Z"/>
  <path fill="#1E1E1E" d="M5.023 146.953c-.91-.233-1.026-1.479-.174-1.876l8.007-3.73a1 1 0 0 0 .541-.637l2.349-8.383c.247-.883 1.453-.995 1.86-.173l3.793 7.68a1 1 0 0 0 .865.557l24.148.766c1.176.038 1.333 1.722.184 1.976l-23.592 5.211a1 1 0 0 0-.747.707l-2.311 8.248c-.247.883-1.453.995-1.86.173l-3.855-7.805a.998.998 0 0 0-.649-.526l-8.559-2.188Z"/>
  <path fill="#fff" d="M9.401 146.535c-.91-.233-1.026-1.479-.174-1.875l4.938-2.301a1 1 0 0 0 .54-.637l1.46-5.208c.247-.883 1.453-.995 1.86-.173l2.333 4.724a1 1 0 0 0 .865.556l14.984.476c1.176.037 1.333 1.722.184 1.975l-14.639 3.234c-.36.08-.647.352-.747.707l-1.421 5.074c-.248.882-1.454.995-1.86.173l-2.396-4.85a1.004 1.004 0 0 0-.648-.526L9.4 146.535Z"/>
</svg>
