<svg xmlns="http://www.w3.org/2000/svg" width="32" height="32" fill="none" viewBox="0 0 32 32">
  <path fill="#1E1E1E" d="M0 2.016a2 2 0 0 1 2-2h28a2 2 0 0 1 2 2v28a2 2 0 0 1-2 2H2a2 2 0 0 1-2-2v-28Z"/>
  <path fill="#fff" d="M4.92 22.317a.5.5 0 0 1-.43-.838l3.942-4.19a.5.5 0 0 0 .133-.396l-.602-5.62a.5.5 0 0 1 .831-.425l4.153 3.732a.5.5 0 0 0 .505.098l14.753-5.354c.554-.201.939.552.452.883L15.68 19.034a.5.5 0 0 0-.216.466l.594 5.551a.5.5 0 0 1-.831.426l-4.204-3.78a.5.5 0 0 0-.4-.123l-5.703.743Z"/>
</svg>
